<svg height="512" viewBox="0 0 512 512" width="512" xmlns="http://www.w3.org/2000/svg"><g id="Isolation_Mode"><g><g><path d="m256.298 512c-.495 0-.987-.066-1.458-.198-36.966-10.271-90.958-33.031-138.256-83.133-5.903-6.252-11.599-12.837-16.929-19.574-35.788-45.231-55.498-102.54-55.498-161.368v-237.425c-.001-5.69 4.612-10.302 10.301-10.302h403.084c5.69 0 10.302 4.612 10.302 10.302v241.289c0 63.808-22.744 124.808-64.041 171.765-.935 1.062-1.885 2.126-2.848 3.188-50.517 55.71-111.445 77.345-143.266 85.282-.46.116-.928.174-1.391.174z" fill="#7dce5c"/><path d="m457.542 0h-92.716c5.69 0 10.302 4.612 10.302 10.302v241.289c0 63.807-22.744 124.808-64.041 171.765-.935 1.062-1.885 2.126-2.848 3.189-31.506 34.744-67.059 56.232-97.078 69.412 15.949 7.201 30.842 12.278 43.679 15.845.472.131.963.198 1.459.198.463 0 .932-.058 1.391-.173 31.822-7.938 92.749-29.572 143.266-85.282.963-1.063 1.913-2.126 2.848-3.189 41.297-46.957 64.041-107.958 64.041-171.765v-241.289c-.001-5.69-4.614-10.302-10.303-10.302z" fill="#6dc847"/><path d="m457.542 0h-46.358c5.69 0 10.302 4.612 10.302 10.302v241.289c0 63.807-22.744 124.808-64.041 171.765-.935 1.062-1.885 2.126-2.848 3.189-40.296 44.438-87.2 67.182-120.688 78.6 7.413 2.654 14.439 4.854 20.931 6.657.472.131.963.198 1.459.198.463 0 .932-.058 1.391-.173 31.822-7.938 92.749-29.572 143.266-85.282.963-1.063 1.913-2.126 2.848-3.189 41.297-46.957 64.041-107.958 64.041-171.765v-241.289c-.001-5.69-4.614-10.302-10.303-10.302z" fill="#575757"/><path d="m457.542 0h-30.905c5.69 0 10.302 4.612 10.302 10.302v241.289c0 63.807-22.744 124.808-64.041 171.765-.935 1.062-1.885 2.126-2.848 3.189-43.585 48.065-94.902 70.754-128.607 81.177 4.66 1.534 9.152 2.901 13.397 4.081.472.131.963.198 1.459.198.463 0 .932-.058 1.391-.173 31.822-7.938 92.749-29.572 143.266-85.282.963-1.063 1.913-2.126 2.848-3.189 41.297-46.957 64.041-107.958 64.041-171.765v-241.29c-.001-5.69-4.614-10.302-10.303-10.302z" fill="#454545"/><g><g><path d="m335.867 369.68h-206.092c-4.268 0-7.726-3.459-7.726-7.726 0-4.268 3.459-7.726 7.726-7.726h206.093c4.268 0 7.726 3.459 7.726 7.726s-3.459 7.726-7.727 7.726z" fill="#f9ee80"/></g><g><path d="m304.962 416.038h-144.282c-4.268 0-7.726-3.459-7.726-7.726s3.459-7.726 7.726-7.726h144.282c4.268 0 7.726 3.459 7.726 7.726s-3.459 7.726-7.726 7.726z" fill="#f9ee80"/></g></g><circle cx="232.821" cy="183.845" fill="#f9ee80" r="116.133"/><path d="m232.821 67.712c-7.938 0-15.689.799-23.179 2.316 53.032 10.742 92.954 57.616 92.954 113.817s-39.922 103.075-92.954 113.817c7.49 1.518 15.241 2.316 23.179 2.316 64.138 0 116.133-51.994 116.133-116.133s-51.995-116.133-116.133-116.133z" fill="#f8ea69"/></g><path d="m278.578 113.23h-73.34c-4.267 0-7.726 3.459-7.726 7.726v83.153h-10.45c-4.267 0-7.726 3.459-7.726 7.726s3.459 7.726 7.726 7.726h10.45v27.171c0 4.268 3.459 7.726 7.726 7.726s7.726-3.459 7.726-7.726v-27.171h29.262c4.267 0 7.726-3.459 7.726-7.726s-3.459-7.726-7.726-7.726h-29.262v-20.899h47.437c4.268 0 7.726-3.459 7.726-7.726s-3.459-7.726-7.726-7.726h-47.437v-39.074h65.613c4.268 0 7.726-3.459 7.726-7.726.002-4.269-3.457-7.728-7.725-7.728z" fill="#575757"/></g></g></svg>