<svg viewBox="0 0 64 64" xmlns="http://www.w3.org/2000/svg" xmlns:xlink="http://www.w3.org/1999/xlink"><linearGradient id="linear-gradient" gradientUnits="userSpaceOnUse" x1="5" x2="43" y1="35" y2="35"><stop offset="0" stop-color="#243384"/><stop offset="1" stop-color="#0f274b"/></linearGradient><linearGradient id="linear-gradient-2" gradientUnits="userSpaceOnUse" x1="14" x2="34.01" y1="10.5" y2="10.5"><stop offset="0" stop-color="#efad7b"/><stop offset="1" stop-color="#ed7a5f"/></linearGradient><linearGradient id="linear-gradient-3" gradientUnits="userSpaceOnUse" x1="10" x2="38" y1="34.5" y2="34.5"><stop offset="0" stop-color="#e2f0f3"/><stop offset="1" stop-color="#a5b7c3"/></linearGradient><linearGradient id="linear-gradient-4" gradientUnits="userSpaceOnUse" x1="13" x2="35" y1="30" y2="30"><stop offset="0" stop-color="#23c8de"/><stop offset="1" stop-color="#117bc9"/></linearGradient><linearGradient id="linear-gradient-5" x1="18" x2="30" xlink:href="#linear-gradient-4"/><linearGradient id="linear-gradient-6" x1="22" x2="26" xlink:href="#linear-gradient-4"/><linearGradient id="linear-gradient-7" x1="14.01" x2="33.99" xlink:href="#linear-gradient-4" y1="44" y2="44"/><linearGradient id="linear-gradient-8" x1="14.01" x2="33.99" xlink:href="#linear-gradient-4" y1="48" y2="48"/><linearGradient id="linear-gradient-9" x1="23.01" x2="46.99" xlink:href="#linear-gradient-2" y1="30" y2="30"/><linearGradient id="linear-gradient-10" x1="46" x2="59" xlink:href="#linear-gradient-2" y1="30" y2="30"/><g id="target"><path d="m43 14v42a3 3 0 0 1 -3 3h-32a3 3 0 0 1 -3-3v-42a3 3 0 0 1 3-3h6v3a2 2 0 0 0 2 2h5l1-1h4l1 1c7.26 0 7 .71 7-5h6a3 3 0 0 1 3 3z" fill="url(#linear-gradient)"/><path d="m34 11c0 3.07.09 3.39-.27 4a2 2 0 0 1 -1.73 1h-5l-1-1h-4l-1 1h-5a2 2 0 0 1 -2-2v-3a2 2 0 0 1 2-2h5v-1a3 3 0 0 1 6 0v1h5a2 2 0 0 1 2 2z" fill="url(#linear-gradient-2)"/><path d="m38 15v39h-28v-39h4.27a2 2 0 0 0 1.73 1h5l1-1h4l1 1c5 0 6 .32 6.73-1z" fill="url(#linear-gradient-3)"/><path d="m24 41a11 11 0 1 1 11-11 11 11 0 0 1 -11 11zm0-20a9 9 0 1 0 9 9 9 9 0 0 0 -9-9z" fill="url(#linear-gradient-4)"/><path d="m24 36a6 6 0 1 1 6-6 6 6 0 0 1 -6 6zm0-10a4 4 0 1 0 4 4 4 4 0 0 0 -4-4z" fill="url(#linear-gradient-5)"/><path d="m24 32a2 2 0 1 1 2-2 2 2 0 0 1 -2 2z" fill="url(#linear-gradient-6)"/><path d="m33 45h-18a1 1 0 0 1 0-2h18a1 1 0 0 1 0 2z" fill="url(#linear-gradient-7)"/><path d="m33 49h-18a1 1 0 0 1 0-2h18a1 1 0 0 1 0 2z" fill="url(#linear-gradient-8)"/><path d="m46 31h-22a1 1 0 0 1 0-2h22a1 1 0 0 1 0 2z" fill="url(#linear-gradient-9)"/><path d="m59 36h-10l-3-6 3-6h10l-3 5.95z" fill="url(#linear-gradient-10)"/></g></svg>