<svg id="Layer_1" enable-background="new 0 0 69 69" viewBox="0 0 69 69" xmlns="http://www.w3.org/2000/svg"><g><g><g><path d="m45.8208008 14.6982422c-.2763672 0-.5-.2236328-.5-.5v-3.5136719c0-1.1054688-.8994141-2.0048828-2.0048828-2.0048828h-17.4140625c-1.1113281 0-2.0146484.8994141-2.0146484 2.0048828v3.5136719c0 .2763672-.2236328.5-.5.5s-.5-.2236328-.5-.5v-3.5136719c0-1.6572266 1.3525391-3.0048828 3.0146484-3.0048828h17.4140625c1.6572266 0 3.0048828 1.3476562 3.0048828 3.0048828v3.5136719c0 .2763672-.2236328.5-.5.5z"/></g><g><path d="m21.126 13.17h4.603v2.057h-4.603z" fill="#ff6c55"/><path d="m25.7290039 15.7265625h-4.6025391c-.2763672 0-.5-.2236328-.5-.5v-2.0566406c0-.2763672.2236328-.5.5-.5h4.6025391c.2763672 0 .5.2236328.5.5v2.0566406c0 .2763672-.2236328.5-.5.5zm-4.1025391-1h3.6025391v-1.0566406h-3.6025391z"/></g><g><path d="m43.519 13.17h4.603v2.057h-4.603z" fill="#ff6c55"/><path d="m48.1225586 15.7265625h-4.6035156c-.2763672 0-.5-.2236328-.5-.5v-2.0566406c0-.2763672.2236328-.5.5-.5h4.6035156c.2763672 0 .5.2236328.5.5v2.0566406c0 .2763672-.2236328.5-.5.5zm-4.1035156-1h3.6035156v-1.0566406h-3.6035156z"/></g><g><path d="m62.4478302 20.4009533v27.3066502c0 2.8571701-2.3203735 5.1676445-5.1674004 5.1676445h-45.4542684c-2.857172 0-5.1572571-2.3104744-5.1572571-5.1676445v-27.3066502c0-2.857666 2.3000851-5.1780367 5.1572571-5.1780367h45.4542694c2.8470259 0 5.1673994 2.3203707 5.1673994 5.1780367z" fill="#00c53b"/></g><g><path d="m62.4425926 31.608181v16.100132c0 2.8516006-2.3216057 5.1732063-5.1732063 5.1732063h-45.4487982c-2.8516006 0-5.1479449-2.3216057-5.1479449-5.1732063v-9.0342789c6.3844504 3.3310776 14.4597759 5.2995033 23.2416115 5.2995033 13.9551949 0 26.118628-4.9714317 32.5283379-12.3653564z" fill="#00b327"/></g><g><path d="m57.2807617 53.3730469h-45.453125c-3.1230469 0-5.6630859-2.5400391-5.6630859-5.6630859v-27.3076172c0-3.1289062 2.5400391-5.6748047 5.6630859-5.6748047h45.453125c3.1230469 0 5.6630859 2.5458984 5.6630859 5.6748047v27.3076172c.0000001 3.1230468-2.540039 5.6630859-5.6630859 5.6630859zm-45.453125-37.6455078c-2.5712891 0-4.6630859 2.0966797-4.6630859 4.6748047v27.3076172c0 2.5712891 2.0917969 4.6630859 4.6630859 4.6630859h45.453125c2.5712891 0 4.6630859-2.0917969 4.6630859-4.6630859v-27.3076172c0-2.578125-2.0917969-4.6748047-4.6630859-4.6748047z"/></g><g><path d="m62.4478302 20.390564v.6486149l-26.5063934 18.228014c-.8309326.5674782-1.9352112.5674782-2.76614-.0202827l-26.5063925-18.6436044v-.2023525c0-2.857666 2.3099804-5.1780367 5.1673994-5.1780367h45.4441261c2.8470269 0 5.1674004 2.3203707 5.1674004 5.1676474z" fill="#0066ed"/><path d="m34.5717773 40.1884766c-.5917969 0-1.1835938-.1787109-1.6855469-.5332031l-26.5058593-18.6425782c-.1328125-.09375-.2119141-.2460938-.2119141-.4091797v-.2021484c0-3.1308594 2.5429688-5.6787109 5.6679688-5.6787109h45.4443359c3.125 0 5.6669922 2.5429688 5.6669922 5.6679688v.6484375c0 .1650391-.0810547.3183594-.2167969.4121094l-26.5058593 18.2285155c-.4970704.3388672-1.0751954.5087891-1.6533204.5087891zm-27.4033203-19.8447266 26.2949219 18.4941406c.6513672.4619141 1.5351562.46875 2.1962891.0166016l26.2880859-18.078125v-.3857422c0-2.5742188-2.09375-4.6679688-4.6669922-4.6679688h-45.4443359c-2.5546875 0-4.6367188 2.0673829-4.6679688 4.6210938zm55.2792969.6953125h.0097656z"/></g><g><path d="m37.967926 38.497364v2.7255707c0 .8005028-.6483688 1.4387283-1.4387283 1.4387283h-3.8503799c-.7903614 0-1.4387283-.6382256-1.4387283-1.4387283v-2.7255707c0-1.8543167 1.5094757-3.3637924 3.3637924-3.3637924.9222107 0 1.7630386.3745232 2.3710823.9825706.6077995.6179391.9929618 1.4491158.9929618 2.3812218z" fill="#fff"/><path d="m36.5288086 43.1621094h-3.8496094c-1.0693359 0-1.9394531-.8701172-1.9394531-1.9394531v-2.7255859c0-2.1298828 1.7333984-3.8632812 3.8642578-3.8632812 1.0292969 0 1.9970703.4013672 2.7246094 1.1289062.7363281.7490234 1.1396484 1.71875 1.1396484 2.734375v2.7255859c0 1.0693359-.8701172 1.9394531-1.9394531 1.9394531zm-1.9248047-7.5283203c-1.5791016 0-2.8642578 1.2841797-2.8642578 2.8632812v2.7255859c0 .5175781.421875.9394531.9394531.9394531h3.8496094c.5175781 0 .9394531-.421875.9394531-.9394531v-2.7255859c0-.7519531-.3017578-1.4726562-.8496094-2.0302734-.5361328-.5361328-1.2529296-.8330078-2.0146484-.8330078z"/></g><g><path d="m47.9790039 21.8544922h-26.8496094c-.2763672 0-.5-.2236328-.5-.5s.2236328-.5.5-.5h26.8496094c.2763672 0 .5.2236328.5.5s-.2236328.5-.5.5z"/></g><g><path d="m25.1547852 25.4853516c-.2763672 0-.5-.2236328-.5-.5v-3.6308594c0-.2763672.2236328-.5.5-.5s.5.2236328.5.5v3.6308594c0 .2763672-.2236329.5-.5.5z"/></g></g><g><g><path d="m66.0395737 40.453537v8.1399727c0 3.8629913-2.0189972 7.4432487-5.3243942 9.4463005l-4.3368721 2.6243286c-.3384438.2070923-.760601.2070923-1.099144 0l-4.3407593-2.6243286c-3.305397-2.0030518-5.3204117-5.5833092-5.3204117-9.4463005v-8.1399727c0-.4898262.3384438-.9199524.8202972-1.0313759 4.7151794-1.0753212 7.4869041-3.0704002 8.6856041-4.1616669.3982391-.3622665 1.0115433-.3622665 1.4097824 0 1.1987 1.0912666 3.9664383 3.0863457 8.6855087 4.1616669.4779588.1114235.8203889.5415497.8203889 1.0313759z" fill="#ff6c55"/></g><g><path d="m66.0388641 46.9486656v1.6418571c0 3.8640747-2.0149612 7.4462433-5.3234787 9.4529076l-4.3367767 2.6203156c-.3399506.2072983-.7628555.2072983-1.1028061 0l-4.3367767-2.6203156c-3.1095161-1.8905602-5.0829773-5.1742325-5.2985802-8.772953 2.0813141.3897018 4.3450279.6053047 6.7248421.6053047 5.439579 0 10.3319092-1.1277084 13.6735763-2.9271164z" fill="#ff544c"/></g><g><path d="m55.8295898 61.3203125c-.2802734 0-.5615234-.0771484-.8115234-.2294922l-4.3388672-2.6230469c-3.4306641-2.0791016-5.5615234-5.8623047-5.5615234-9.8740234v-8.140625c0-.7294922.4970703-1.3535156 1.2080078-1.5185547 4.8398438-1.1035156 7.5292969-3.1953125 8.4609375-4.0439453.59375-.5390625 1.4892578-.5390625 2.0830078 0 .9326172.8486328 3.6230469 2.9414062 8.4609375 4.0439453.7011719.1630859 1.2089844.8017578 1.2089844 1.5185547v8.140625c0 4.0107422-2.1328125 7.7939453-5.5654297 9.8740234l-4.3369141 2.6240234c-.2490234.1523438-.5283203.2285157-.8076172.2285157zm-.0009765-25.8310547c-.1328125 0-.265625.0478516-.3691406.1416016-.9892578.9013672-3.8398438 3.1220703-8.9101562 4.2783203-.25.0576172-.4316406.2871094-.4316406.5439453v8.140625c0 3.6640625 1.9462891 7.1201172 5.0791016 9.0185547l4.3408203 2.6240234c.1787109.109375.4013672.1103516.5800781.0009766l4.3388672-2.625c3.1347656-1.8994141 5.0830078-5.3554688 5.0830078-9.0185547v-8.140625c0-.2568359-.1826172-.4853516-.4335938-.5439453-4.8847656-1.1132812-7.6787109-3.1582031-8.9091797-4.2783203-.1025391-.0947266-.2353516-.1416016-.3681641-.1416016z"/></g><g><g><g><g><g><circle cx="55.829" cy="47.259" fill="#fff" r="4.948"/></g><g><path d="m55.8286133 52.7060547c-3.0039062 0-5.4472656-2.4433594-5.4472656-5.4472656s2.4433594-5.4472656 5.4472656-5.4472656 5.4472656 2.4433594 5.4472656 5.4472656-2.4433594 5.4472656-5.4472656 5.4472656zm0-9.8945313c-2.4521484 0-4.4472656 1.9951172-4.4472656 4.4472656s1.9951172 4.4472656 4.4472656 4.4472656 4.4472656-1.9951172 4.4472656-4.4472656-1.9951172-4.4472656-4.4472656-4.4472656z"/></g></g><g><path d="m55.2797852 48.9492188c-.1191406 0-.2382812-.0419922-.3339844-.1279297l-1.0986328-.9873047c-.2060547-.1845703-.2226562-.5009766-.0380859-.7060547.1845703-.2060547.5009766-.2216797.7060547-.0380859l.7314453.6572266 1.8632812-2.0175781c.1884766-.203125.5039062-.2158203.7060547-.0283203.203125.1875.2158203.5029297.0283203.7060547l-2.1972656 2.3808594c-.0986329.1074217-.2324219.1611327-.3671875.1611327z"/></g></g></g></g></g><g><path d="m2.9636891 50.379509v3.7906837c0 2.1795883 4.0490828 3.9487801 9.0375051 3.9487801 4.9974957 0 9.0465775-1.7691917 9.0465775-3.9487801v-3.7906837z" fill="#ebae56"/><path d="m12.0014648 58.6191406c-5.3486328 0-9.5380859-1.9541016-9.5380859-4.4492188v-3.7900391c0-.2763672.2236328-.5.5-.5h18.0839844c.2763672 0 .5.2236328.5.5v3.7900391c0 2.4951173-4.1933594 4.4492188-9.5458985 4.4492188zm-8.5380859-7.7392578v3.2900391c0 1.6318359 3.5068359 3.4492188 8.5380859 3.4492188 5.0361328 0 8.5458984-1.8173828 8.5458984-3.4492188v-3.2900391z"/></g><g><ellipse cx="12.004" cy="50.376" fill="#fbc56d" rx="9.044" ry="3.946"/><path d="m12.0043945 54.8222656c-5.3515625 0-9.5439453-1.953125-9.5439453-4.4462891s4.1923828-4.4453125 9.5439453-4.4453125 9.5429688 1.9521484 9.5429688 4.4453125-4.1914063 4.4462891-9.5429688 4.4462891zm0-7.8916015c-5.0351562 0-8.5439453 1.8154297-8.5439453 3.4453125s3.5087891 3.4462891 8.5439453 3.4462891c5.0341797 0 8.5429688-1.8164062 8.5429688-3.4462891s-3.5087891-3.4453125-8.5429688-3.4453125z"/></g><g><path d="m5.9626541 43.5099449v3.7906876c0 2.1795845 4.0490828 3.9487801 9.0375051 3.9487801 4.9974947 0 9.0465784-1.7691956 9.0465784-3.9487801v-3.7906876z" fill="#ebae56"/><path d="m15.0004883 51.7490234c-5.3486328 0-9.5380859-1.9541016-9.5380859-4.4482422v-3.7910156c0-.2763672.2236328-.5.5-.5h18.0839844c.2763672 0 .5.2236328.5.5v3.7910156c-.0000001 2.4941407-4.1933595 4.4482422-9.5458985 4.4482422zm-8.538086-7.7392578v3.2910156c0 1.6308594 3.5068359 3.4482422 8.5380859 3.4482422 5.0361328 0 8.5458984-1.8173828 8.5458984-3.4482422v-3.2910156z"/></g><g><ellipse cx="15.003" cy="43.507" fill="#fbc56d" rx="9.044" ry="3.946"/><path d="m15.003418 47.9521484c-5.3515625 0-9.5439453-1.9521484-9.5439453-4.4453125s4.1923828-4.4453125 9.5439453-4.4453125 9.5429688 1.9521484 9.5429688 4.4453125-4.1914063 4.4453125-9.5429688 4.4453125zm0-7.890625c-5.0351562 0-8.5439453 1.8154297-8.5439453 3.4453125s3.5087891 3.4453125 8.5439453 3.4453125c5.0341797 0 8.5429688-1.8154297 8.5429688-3.4453125s-3.5087891-3.4453125-8.5429688-3.4453125z"/></g></g></svg>