<svg height="496pt" viewBox="0 -3 496 495" width="496pt" xmlns="http://www.w3.org/2000/svg"><path d="m456 365.429688v52.558593h-64l-2.480469.878907c-6.238281-19.039063-24.320312-32.878907-45.519531-32.878907s-39.28125 13.839844-45.519531 32.878907l-2.480469-.878907h-144l-2.480469.878907c-6.238281-19.039063-24.320312-32.878907-45.519531-32.878907s-39.28125 13.839844-45.519531 32.878907l-2.480469-.878907h-48v-55.039062c0-14.640625 10-27.441407 24.238281-31.042969l23.921875-5.917969c9.917969-2.558593 18.078125-9.679687 21.917969-19.199219l17.84375-44.722656c4.878906-12.078125 16.636719-20.078125 29.757813-20.078125h172.640624c13.121094 0 24.878907 8 29.757813 20.078125l17.121094 42.960938c4.242187 10.480468 13.679687 18 24.878906 19.761718l58.800781 9.039063c15.601563 2.398437 27.121094 15.839844 27.121094 31.601563zm0 0" fill="#fcd770"/><g fill="#ccd1d9"><path d="m456 417.988281v24c0 4.398438-3.601562 8-8 8h-56l-2.480469-.878906c1.601563-4.722656 2.480469-9.839844 2.480469-15.121094s-.878906-10.398437-2.480469-15.121093l2.480469-.878907zm0 0"/><path d="m296 433.988281c0 5.28125.878906 10.398438 2.480469 15.121094l-2.480469.878906h-144l-2.480469-.878906c1.601563-4.722656 2.480469-9.839844 2.480469-15.121094s-.878906-10.398437-2.480469-15.121093l2.480469-.878907h144l2.480469.878907c-1.601563 4.722656-2.480469 9.839843-2.480469 15.121093zm0 0"/><path d="m56 433.988281c0 5.28125.878906 10.398438 2.480469 15.121094l-2.480469.878906h-40c-4.398438 0-8-3.601562-8-8v-24h48l2.480469.878907c-1.601563 4.722656-2.480469 9.839843-2.480469 15.121093zm0 0"/></g><path d="m389.519531 418.867188c1.601563 4.722656 2.480469 9.839843 2.480469 15.121093s-.878906 10.398438-2.480469 15.121094c-6.238281 19.039063-24.320312 32.878906-45.519531 32.878906s-39.28125-13.839843-45.519531-32.878906c-1.601563-4.722656-2.480469-9.839844-2.480469-15.121094s.878906-10.398437 2.480469-15.121093c6.238281-19.039063 24.320312-32.878907 45.519531-32.878907s39.28125 13.839844 45.519531 32.878907zm0 0" fill="#838f9b"/><path d="m149.519531 418.867188c1.601563 4.722656 2.480469 9.839843 2.480469 15.121093s-.878906 10.398438-2.480469 15.121094c-6.238281 19.039063-24.320312 32.878906-45.519531 32.878906s-39.28125-13.839843-45.519531-32.878906c-1.601563-4.722656-2.480469-9.839844-2.480469-15.121094s.878906-10.398437 2.480469-15.121093c6.238281-19.039063 24.320312-32.878907 45.519531-32.878907s39.28125 13.839844 45.519531 32.878907zm0 0" fill="#838f9b"/><path d="m360 433.988281c0 8.835938-7.164062 16-16 16s-16-7.164062-16-16c0-8.835937 7.164062-16 16-16s16 7.164063 16 16zm0 0" fill="#aab2bd"/><path d="m120 433.988281c0 8.835938-7.164062 16-16 16s-16-7.164062-16-16c0-8.835937 7.164062-16 16-16s16 7.164063 16 16zm0 0" fill="#aab2bd"/><path d="m301.121094 299.746094 10.878906 54.242187h-200l10.878906-54.242187c2.960938-14.957032 16.082032-25.757813 31.359375-25.757813h115.523438c15.277343 0 28.398437 10.800781 31.359375 25.757813zm0 0" fill="#69d6f4"/><path d="m317.921875 121.988281c-2.800781-10.398437-4.640625-21.039062-5.441406-32-.320313-4.082031-.480469-8.160156-.480469-12.242187v-11.757813l88-56 88 56v11.757813c0 61.761718-33.761719 118.640625-88 148.242187-18.878906-10.320312-35.359375-23.921875-48.640625-40-15.597656-18.558593-27.039063-40.398437-33.4375-64zm0 0" fill="#5cd6b3"/><path d="m440 89.988281v32h-24v24h-32v-24h-24v-32h24v-24h32v24zm0 0" fill="#e6e9ed"/><path d="m104 409.988281c-13.230469 0-24 10.769531-24 24s10.769531 24 24 24 24-10.769531 24-24-10.769531-24-24-24zm0 32c-4.40625 0-8-3.59375-8-8 0-4.410156 3.59375-8 8-8s8 3.589844 8 8c0 4.40625-3.59375 8-8 8zm0 0"/><path d="m344 409.988281c-13.230469 0-24 10.769531-24 24s10.769531 24 24 24 24-10.769531 24-24-10.769531-24-24-24zm0 32c-4.40625 0-8-3.59375-8-8 0-4.410156 3.59375-8 8-8s8 3.589844 8 8c0 4.40625-3.59375 8-8 8zm0 0"/><path d="m430.078125 325.90625-58.804687-9.046875c-8.351563-1.289063-15.496094-6.960937-18.632813-14.808594l-17.167969-42.917969c-6.105468-15.28125-20.679687-25.144531-37.136718-25.144531h-172.671876c-16.457031 0-31.03125 9.863281-37.144531 25.144531l-17.871093 44.6875c-2.855469 7.136719-9.007813 12.503907-16.472657 14.367188l-23.878906 5.976562c-17.832031 4.464844-30.296875 20.414063-30.296875 38.808594v79.015625c0 8.824219 7.175781 16 16 16h37.480469c9.007812 18.886719 28.238281 32 50.519531 32s41.511719-13.113281 50.519531-32h138.960938c9.007812 18.886719 28.238281 32 50.519531 32s41.511719-13.113281 50.519531-32h53.480469c8.824219 0 16-7.175781 16-16v-76.542969c0-19.890624-14.265625-36.511718-33.921875-39.539062zm-395.902344 13.785156 23.886719-5.976562c12.425781-3.101563 22.679688-12.054688 27.441406-23.949219l17.871094-44.691406c3.671875-9.167969 12.417969-15.085938 22.289062-15.085938h172.671876c9.871093 0 18.617187 5.917969 22.28125 15.085938l17.167968 42.921875c5.230469 13.089844 17.136719 22.542968 31.054688 24.679687l58.808594 9.046875c11.792968 1.808594 20.351562 11.785156 20.351562 23.722656v44.542969h-53.480469c-9.007812-18.886719-28.238281-32-50.519531-32s-41.511719 13.113281-50.519531 32h-138.960938c-9.007812-18.886719-28.238281-32-50.519531-32s-41.511719 13.113281-50.519531 32h-37.480469v-47.015625c0-11.03125 7.480469-20.609375 18.175781-23.28125zm-18.175781 102.296875v-16h32.640625c-.375 2.625-.640625 5.28125-.640625 8s.265625 5.375.640625 8zm88 32c-22.054688 0-40-17.945312-40-40 0-22.054687 17.945312-40 40-40s40 17.945313 40 40c0 22.054688-17.945312 40-40 40zm55.359375-32c.375-2.625.640625-5.28125.640625-8s-.265625-5.375-.640625-8h129.28125c-.375 2.625-.640625 5.28125-.640625 8s.265625 5.375.640625 8zm184.640625 32c-22.054688 0-40-17.945312-40-40 0-22.054687 17.945312-40 40-40s40 17.945313 40 40c0 22.054688-17.945312 40-40 40zm55.359375-32c.375-2.625.640625-5.28125.640625-8s-.265625-5.375-.640625-8h48.640625v16zm0 0"/><path d="m376 57.988281v24h-24v48h24v24h48v-24h24v-48h-24v-24zm56 40v16h-24v24h-16v-24h-24v-16h24v-24h16v24zm0 0"/><path d="m256 345.988281h-134.238281l8.941406-44.703125c2.234375-11.183594 12.128906-19.296875 23.527344-19.296875h115.53125c11.398437 0 21.292969 8.113281 23.535156 19.296875l8.941406 44.703125h-30.238281v16h49.761719l-12.769531-63.847656c-3.726563-18.632813-20.222657-32.152344-39.222657-32.152344h-115.539062c-19 0-35.496094 13.519531-39.222657 32.152344l-12.769531 63.847656h153.761719zm0 0"/><path d="m400 .5-96 61.097656v16.148438c0 1.417968.015625 2.832031.054688 4.242187h-88.054688v16h105.0625l-.613281-8.578125c-.28125-3.863281-.449219-7.75-.449219-11.664062v-7.367188l80-50.902344 80 50.902344v7.367188c0 57.433594-30.542969 110.3125-80 139.058594-16.089844-9.359376-30.359375-21.441407-42.496094-35.953126l-2.390625-2.863281h-139.113281v16h131.671875c13.863281 15.902344 30.160156 29.023438 48.496094 39.023438l3.832031 2.089843 3.832031-2.089843c56.847657-31.015625 92.167969-90.503907 92.167969-155.265625v-16.148438zm0 0"/><path d="m168 113.988281h152v16h-152zm0 0"/><path d="m96 145.988281h224v16h-224zm0 0"/><path d="m184 177.988281h16v16h-16zm0 0"/><path d="m152 177.988281h16v16h-16zm0 0"/><path d="m120 177.988281h16v16h-16zm0 0"/><path d="m88 177.988281h16v16h-16zm0 0"/><path d="m64 145.988281h16v16h-16zm0 0"/><path d="m32 145.988281h16v16h-16zm0 0"/><path d="m0 145.988281h16v16h-16zm0 0"/><path d="m184 81.988281h16v16h-16zm0 0"/><path d="m152 81.988281h16v16h-16zm0 0"/><path d="m120 81.988281h16v16h-16zm0 0"/></svg>