<svg id="Layer_1" height="512" viewBox="0 0 65 65" width="512" xmlns="http://www.w3.org/2000/svg"><g><g id="XMLID_1810_"><circle cx="32.5" cy="32.5" fill="#4fbf9f" r="32"/></g><g id="XMLID_3194_"><path d="m52.1 38.3c-1.6 1.2-3.6 2-5.8 2s-4.2-.8-5.8-2c-4.3 2.1-7.3 6.6-7.3 11.8v4.3h26.2v-4.3c.1-5.2-2.9-9.6-7.3-11.8z" fill="#fff"/><path d="m59.5 55.4h-26.3c-.6 0-1-.4-1-1v-4.3c0-5.4 3-10.3 7.9-12.7.3-.2.8-.1 1.1.1 1.5 1.2 3.3 1.8 5.2 1.8s3.7-.6 5.2-1.8c.3-.2.7-.3 1.1-.1 4.9 2.4 7.9 7.2 7.9 12.7v4.3c-.1.5-.6 1-1.1 1zm-25.3-2h24.2v-3.3c0-4.4-2.4-8.4-6.2-10.6-1.7 1.2-3.8 1.8-5.9 1.8s-4.1-.6-5.9-1.8c-3.9 2.1-6.2 6.1-6.2 10.6z" fill="#183651"/></g><g id="XMLID_3195_"><path d="m36.6 51.1v-1c0-3.2 1.5-6 4-7.9 1.8.9 3.8 1.4 5.8 1.4 2.1 0 4-.5 5.8-1.4 2.5 1.8 4 4.7 4 7.9v1z" fill="#f06151"/></g><g id="XMLID_3196_"><circle cx="46.4" cy="30.9" fill="#fff" r="6.1"/><path d="m46.4 38c-3.9 0-7.1-3.2-7.1-7.1s3.2-7.1 7.1-7.1 7.1 3.2 7.1 7.1-3.2 7.1-7.1 7.1zm0-12.1c-2.8 0-5.1 2.3-5.1 5.1s2.3 5.1 5.1 5.1 5.1-2.3 5.1-5.1-2.4-5.1-5.1-5.1z" fill="#183651"/></g><g id="XMLID_3197_"><circle cx="14.8" cy="7.7" fill="#fff" r="6.2"/><path d="m14.8 14.8c-3.9 0-7.2-3.2-7.2-7.2s3.2-7.2 7.2-7.2 7.2 3.3 7.2 7.3-3.2 7.1-7.2 7.1zm0-12.3c-2.8 0-5.2 2.3-5.2 5.2s2.3 5.2 5.2 5.2 5.2-2.4 5.2-5.2-2.3-5.2-5.2-5.2z" fill="#183651"/></g><g id="XMLID_18588_"><path d="m29.2 54.4h34.3v9.1h-34.3z" fill="#fff"/><path d="m63.5 64.5h-34.3c-.6 0-1-.4-1-1v-9.1c0-.6.4-1 1-1h34.3c.6 0 1 .4 1 1v9.1c0 .6-.4 1-1 1zm-33.3-2h32.3v-7.1h-32.3z" fill="#183651"/></g><g id="XMLID_18587_"><path d="m32.5 57.7h27.6v4.8h-27.6z" fill="#e0e4e8"/></g><g id="XMLID_3198_"><path d="m23.4 13.1c-1.8 2.8-5 4.7-8.6 4.7s-6.8-1.9-8.6-4.7c-2.7.8-4.8 3.3-4.8 6.3v22h26.7v-22c.1-3-2-5.5-4.7-6.3z" fill="#fbbd5e"/><path d="m28.2 42.4h-26.7c-.6 0-1-.4-1-1v-22c0-3.4 2.3-6.4 5.5-7.3.4-.1.9 0 1.1.4 1.7 2.7 4.6 4.3 7.7 4.3s6-1.6 7.7-4.3c.2-.4.7-.5 1.1-.4 3.2.9 5.5 3.9 5.5 7.3v22c.1.5-.4 1-.9 1zm-25.7-2h24.7v-21c0-2.2-1.4-4.2-3.4-5.1-2.1 2.9-5.4 4.5-9 4.5s-6.9-1.7-9-4.5c-2 .9-3.4 2.9-3.4 5.1v21z" fill="#183651"/></g><g id="XMLID_3199_"><path d="m5.5 37.4v-18c0-.3.1-.6.2-.9 2.5 2.1 5.7 3.4 9.1 3.4s6.6-1.2 9.1-3.4c.1.3.2.6.2.9v18z" fill="#fff"/></g><g id="XMLID_18584_"><path d="m8.1 41.4h13.6v22.1h-13.6z" fill="#fbbd5e"/><path d="m21.6 64.5h-13.5c-.6 0-1-.4-1-1v-22.1c0-.6.4-1 1-1h13.6c.6 0 1 .4 1 1v22.1c-.1.6-.5 1-1.1 1zm-12.5-2h11.6v-20.1h-11.6z" fill="#183651"/></g><g id="XMLID_18583_"><path d="m12.1 45.4h5.6v17.1h-5.6z" fill="#fff"/></g><g id="XMLID_3200_"><path d="m14.8 63.5v-14.2" fill="#e0e4e8"/><path d="m14.8 64.5c-.6 0-1-.4-1-1v-14.2c0-.6.4-1 1-1s1 .4 1 1v14.2c0 .6-.4 1-1 1z" fill="#183651"/></g><g id="XMLID_3201_"><g id="XMLID_3202_"><path d="m23.2 41.4v-15.8" fill="#e0e4e8"/><path d="m23.2 42.4c-.6 0-1-.4-1-1v-15.8c0-.6.4-1 1-1s1 .4 1 1v15.8c0 .5-.5 1-1 1z" fill="#183651"/></g><g id="XMLID_3203_"><path d="m6.5 41.4v-15.8" fill="#e0e4e8"/><path d="m6.5 42.4c-.6 0-1-.4-1-1v-15.8c0-.6.4-1 1-1s1 .4 1 1v15.8c0 .5-.5 1-1 1z" fill="#183651"/></g></g><g id="XMLID_18551_"><g id="XMLID_18570_"><g id="XMLID_18571_"><g id="XMLID_18572_"><g id="XMLID_18573_"><g id="XMLID_18574_"><g id="XMLID_18575_"><g id="XMLID_18576_"><g id="XMLID_18577_"><g id="XMLID_18578_"><path d="m13.8 23.8h2v2h-2z" fill="#183651"/></g></g></g></g></g></g></g></g></g><g id="XMLID_18561_"><g id="XMLID_18562_"><g id="XMLID_18563_"><g id="XMLID_18564_"><g id="XMLID_18565_"><g id="XMLID_18566_"><g id="XMLID_18567_"><g id="XMLID_18568_"><g id="XMLID_18569_"><path d="m13.8 29h2v2h-2z" fill="#183651"/></g></g></g></g></g></g></g></g></g><g id="XMLID_18552_"><g id="XMLID_18553_"><g id="XMLID_18554_"><g id="XMLID_18555_"><g id="XMLID_18556_"><g id="XMLID_18557_"><g id="XMLID_18558_"><g id="XMLID_18559_"><g id="XMLID_18560_"><path d="m13.8 34.1h2v2h-2z" fill="#183651"/></g></g></g></g></g></g></g></g></g></g><g id="XMLID_3204_"><path d="m47.3 1.5h-15.4c-1.2 0-2.2 1-2.2 2.2v8.2c0 1.2 1 2.2 2.2 2.2h2.5v3.8l6.7-3.8h6.2c1.2 0 2.2-1 2.2-2.2v-8.2c-.1-1.2-1-2.2-2.2-2.2z" fill="#f06151"/><path d="m33.9 18.8c-.3-.2-.5-.5-.5-.9v-2.8h-1.5c-1.8 0-3.2-1.4-3.2-3.2v-8.2c0-1.8 1.4-3.2 3.2-3.2h15.4c1.8 0 3.2 1.4 3.2 3.2v8.2c0 1.8-1.4 3.2-3.2 3.2h-6l-6.4 3.7c-.3.1-.7.1-1 0zm-2-16.3c-.6 0-1.2.5-1.2 1.2v8.2c0 .6.5 1.2 1.2 1.2h2.5c.6 0 1 .4 1 1v2.1l5.2-3c.2-.1.3-.1.5-.1h6.2c.6 0 1.2-.5 1.2-1.2v-8.2c0-.6-.5-1.2-1.2-1.2z" fill="#183651"/></g><g id="XMLID_3205_"><path d="m32.7 4.5h13.7v6.6h-13.7z" fill="#fff"/></g><g id="XMLID_18548_"><path d="m45.9 5.2h15.4c1.2 0 2.2 1 2.2 2.2v8.2c0 1.2-1 2.2-2.2 2.2h-2.5v3.8l-6.7-3.8h-6.2c-1.2 0-2.2-1-2.2-2.2v-8.2c.1-1.2 1-2.2 2.2-2.2z" fill="#fbbd5e"/><path d="m58.3 22.5-6.4-3.7h-6c-1.8 0-3.2-1.4-3.2-3.2v-8.2c0-1.8 1.4-3.2 3.2-3.2h15.4c1.8 0 3.2 1.4 3.2 3.2v8.2c0 1.8-1.4 3.2-3.2 3.2h-1.5v2.8c0 .4-.2.7-.5.9s-.7.2-1 0zm-12.4-16.3c-.6 0-1.2.5-1.2 1.2v8.2c0 .6.5 1.2 1.2 1.2h6.2c.2 0 .3 0 .5.1l5.2 3v-2.1c0-.6.4-1 1-1h2.5c.6 0 1.2-.5 1.2-1.2v-8.2c0-.6-.5-1.2-1.2-1.2z" fill="#183651"/></g><g id="XMLID_3206_"><path d="m46.8 8.2h13.7v6.6h-13.7z" fill="#fff"/></g><g id="XMLID_3207_"><g id="XMLID_18538_"><g id="XMLID_18539_"><g id="XMLID_18540_"><g id="XMLID_18541_"><g id="XMLID_18542_"><g id="XMLID_18543_"><g id="XMLID_18544_"><g id="XMLID_18545_"><g id="XMLID_18546_"><path d="m48.6 10.5h2v2h-2z" fill="#183651"/></g></g></g></g></g></g></g></g></g><g id="XMLID_18529_"><g id="XMLID_18530_"><g id="XMLID_18531_"><g id="XMLID_18532_"><g id="XMLID_18533_"><g id="XMLID_18534_"><g id="XMLID_18535_"><g id="XMLID_18536_"><g id="XMLID_18537_"><path d="m52.6 10.5h2v2h-2z" fill="#183651"/></g></g></g></g></g></g></g></g></g><g id="XMLID_18520_"><g id="XMLID_18521_"><g id="XMLID_18522_"><g id="XMLID_18523_"><g id="XMLID_18524_"><g id="XMLID_18525_"><g id="XMLID_18526_"><g id="XMLID_18527_"><g id="XMLID_18528_"><path d="m56.6 10.5h2v2h-2z" fill="#183651"/></g></g></g></g></g></g></g></g></g></g><g id="XMLID_3208_"><g id="XMLID_18510_"><g id="XMLID_18511_"><g id="XMLID_18512_"><g id="XMLID_18513_"><g id="XMLID_18514_"><g id="XMLID_18515_"><g id="XMLID_18516_"><g id="XMLID_18517_"><g id="XMLID_18518_"><path d="m34.6 6.8h2v2h-2z" fill="#183651"/></g></g></g></g></g></g></g></g></g><g id="XMLID_18501_"><g id="XMLID_18502_"><g id="XMLID_18503_"><g id="XMLID_18504_"><g id="XMLID_18505_"><g id="XMLID_18506_"><g id="XMLID_18507_"><g id="XMLID_18508_"><g id="XMLID_18509_"><path d="m38.6 6.8h2v2h-2z" fill="#183651"/></g></g></g></g></g></g></g></g></g></g></g></svg>