<svg id="Layer_1" enable-background="new 0 0 512 512" viewBox="0 0 512 512" xmlns="http://www.w3.org/2000/svg"><g clip-rule="evenodd" fill-rule="evenodd"><g><g><path d="m369.499 50.464c10.557 0 19.167 8.61 19.167 19.167v384.811c0 10.557-8.609 19.167-19.167 19.167h-322.066c-10.558 0-19.167-8.61-19.167-19.167v-384.811c0-10.557 8.61-19.167 19.167-19.167z" fill="#b4d2d7"/><path d="m369.499 50.464c10.558 0 19.167 8.611 19.167 19.167v384.811c0 10.556-8.611 19.167-19.167 19.167h-18.81c10.557 0 19.167-8.609 19.167-19.167v-384.811c0-10.557-8.61-19.167-19.167-19.167z" fill="#9bb9c3"/><path d="m59.497 85.457v353.158c0 2.072 1.69 3.762 3.762 3.762h248.302l45.872-45.872v-311.048c0-2.072-1.69-3.762-3.762-3.762h-290.411c-2.073.001-3.763 1.691-3.763 3.762z" fill="#eff4f7"/><path d="m59.497 85.457v353.158c0 2.072 1.69 3.762 3.762 3.762h16.323c-2.072 0-3.762-1.69-3.762-3.762v-353.158c0-2.072 1.69-3.762 3.762-3.762h-16.323c-2.072.001-3.762 1.69-3.762 3.762z" fill="#ddd"/><path d="m311.562 396.505v45.872l45.872-45.872z" fill="#e2e3e3"/><path d="m274.801 50.464h-48.05l19.118-27.03c4.297-6.076-.03-14.437-7.472-14.437h-59.862c-7.443 0-11.769 8.36-7.472 14.437l19.118 27.03h-48.05c-2.411 0-4.187 2.2-3.677 4.556l6.497 30.068c1.135 5.253 5.658 8.902 11.031 8.902h104.968c5.374 0 9.897-3.65 11.032-8.902l6.497-30.068c.509-2.356-1.267-4.556-3.678-4.556z" fill="#da8c36"/><path d="m191.18 8.997h-12.645c-7.443 0-11.769 8.36-7.472 14.437l19.118 27.031h12.645l-19.118-27.031c-4.297-6.077.029-14.437 7.472-14.437zm-36.405 41.467c-2.411 0-4.187 2.2-3.677 4.556l6.497 30.068c1.135 5.253 5.658 8.902 11.031 8.902h-12.645c-5.374 0-9.896-3.649-11.031-8.902l-6.497-30.068c-.509-2.356 1.266-4.556 3.677-4.556z" fill="#c97629"/></g><g><path d="m109.022 355.908h46.259c2.28 0 4.145 1.865 4.145 4.145v46.259c0 2.28-1.865 4.145-4.145 4.145h-46.259c-2.281 0-4.145-1.865-4.145-4.145v-46.259c0-2.28 1.865-4.145 4.145-4.145z" fill="#64b5f6"/><path d="m109.022 355.908h46.259c2.28 0 4.145 1.865 4.145 4.145v3.388h-42.488c-2.281 0-4.145 1.865-4.145 4.145v42.871h-3.77c-2.281 0-4.145-1.865-4.145-4.145v-46.259c-.001-2.28 1.864-4.145 4.144-4.145z" fill="#42a5f5"/></g><g><path d="m191.617 216.391c-1.806 15.325-4.984 31.825-10.068 47.697-4.395 13.719-10.192 26.9-17.727 38.391l-20.86-13.647c6.298-9.605 11.175-20.72 14.9-32.346 4.502-14.054 7.349-28.942 8.996-42.921zm66.54-84.02c2.18-6.514 9.229-10.027 15.743-7.847s10.027 9.229 7.847 15.743l-26.625 78.826c1.448 9.423 4.692 24.698 10.447 39.754 4.032 10.547 9.223 20.767 15.726 28.172l-18.716 16.376c-8.75-9.963-15.376-22.778-20.307-35.677-7.032-18.396-10.759-37.443-12.162-47.825-.311-1.924-.175-3.948.487-5.924z" fill="#ffda2d"/><path d="m191.617 216.391c-1.806 15.325-4.984 31.825-10.068 47.697-4.395 13.719-10.192 26.9-17.727 38.391l-7.101-4.646c6.144-10.341 11.015-21.84 14.828-33.745 5.084-15.871 8.263-32.372 10.068-47.697l-14.895-1.701.135-1.126zm73.334-91.46c2.73-1.2 5.898-1.427 8.948-.406 6.514 2.18 10.027 9.229 7.847 15.743l-26.625 78.826c1.448 9.423 4.692 24.698 10.447 39.754 4.032 10.547 9.223 20.767 15.726 28.172l-18.716 16.376c-1.437-1.636-2.816-3.35-4.14-5.127l12.856-11.249c-6.503-7.405-11.694-17.625-15.726-28.172-5.755-15.056-8.999-30.331-10.447-39.754l26.625-78.826c2.06-6.154-.962-12.785-6.795-15.337z" fill="#ffc700"/><path d="m127.219 298.566c-6.285-3.17-8.81-10.835-5.64-17.12s10.836-8.81 17.12-5.64c19.524 9.911 48.097 12.906 69.766 12.906s50.241-2.995 69.765-12.906c6.285-3.17 13.951-.645 17.12 5.64 3.17 6.285.645 13.95-5.64 17.12-23.211 11.783-55.442 15.701-81.246 15.701-25.803-.001-58.033-3.918-81.245-15.701zm120.743-94.6c7.057 0 12.778 5.721 12.778 12.778s-5.721 12.778-12.778 12.778h-99.042c-7.057 0-12.778-5.721-12.778-12.778s5.721-12.778 12.778-12.778z" fill="#fdb800"/><path d="m127.219 298.566c-6.04-3.047-8.607-10.245-5.983-16.38 1.138 2.671 3.188 4.97 5.983 6.38 23.211 11.783 55.442 15.701 81.246 15.701s58.035-3.918 81.246-15.701c2.795-1.41 4.846-3.709 5.983-6.38 2.624 6.135.057 13.334-5.983 16.38-23.211 11.783-55.442 15.701-81.246 15.701-25.804-.001-58.034-3.918-81.246-15.701zm132.505-86.822c.654 1.536 1.016 3.226 1.016 5 0 7.057-5.721 12.778-12.778 12.778h-99.042c-7.057 0-12.778-5.721-12.778-12.778 0-1.774.362-3.464 1.016-5 1.946 4.572 6.48 7.778 11.762 7.778h99.042c5.282 0 9.816-3.206 11.762-7.778z" fill="#f4a40e"/></g><g><path d="m423.136 303.986v17.425c44.342 41.373 83.186 101.17 45.174 150.951-15.234 19.952-36.836 30.637-61.939 30.637h-53.372c-25.107 0-46.711-10.689-61.944-30.645-38.001-49.785.84-109.573 45.181-150.943 0 0 0-5.808 0-17.425-2.694-7.197-4.093-9.888-11.609-20.617-13.055-18.634-10.409-24.947 21.48-13.16 13.385 4.948 7.749-19.21 33.58-19.21 25.83 0 20.194 24.158 33.58 19.21 31.888-11.786 34.534-5.474 21.48 13.16-7.518 10.729-8.918 13.42-11.611 20.617z" fill="#72d561"/><path d="m423.136 303.986v17.425c44.342 41.373 83.186 101.17 45.174 150.951-15.234 19.952-36.836 30.637-61.939 30.637h-14.621c25.103 0 46.705-10.685 61.939-30.637 38.012-49.781-.832-109.578-45.174-150.951 0 0 0-5.808 0-17.425 2.694-7.197 4.093-9.888 11.609-20.617 6.156-8.786 8.82-14.832 6.572-17.533 18.898-4.997 18.954 1.968 8.049 17.533-7.516 10.729-8.916 13.42-11.609 20.617zm-105.082-38.15c2.189-2.633 9.045-2.087 21.877 2.196-1.993 2.456-4.312 3.706-8.446 2.178-5.252-1.942-9.705-3.389-13.431-4.374zm54.321-14.062c17.524 4.091 14.325 22.85 26.269 18.435 2.197-.812 4.251-1.535 6.175-2.178-4.459-5.495-7.281-17.033-25.134-17.033-2.781.001-5.196.282-7.31.776z" fill="#57ca5a"/><path d="m331.863 301.963h95.645c5.905 0 10.735 4.831 10.735 10.736 0 5.904-4.832 10.735-10.735 10.735h-95.645c-5.904 0-10.735-4.831-10.735-10.735 0-5.905 4.83-10.736 10.735-10.736z" fill="#ffda2d"/><path d="m331.863 301.963h95.645c5.666 0 10.342 4.448 10.711 10.024-.235-.016-.472-.024-.711-.024h-95.645c-5.905 0-10.735 4.831-10.735 10.736 0 .239.009.476.024.711-5.575-.369-10.024-5.045-10.024-10.711 0-5.905 4.83-10.736 10.735-10.736z" fill="#ffc700"/></g><g><ellipse cx="379.685" cy="412.205" fill="#fdb800" rx="59.06" ry="59.06" transform="matrix(1 -.024 .024 1 -9.699 9.149)"/><g fill="#f4a40e"><path d="m343.035 458.517c-13.651-10.818-22.41-27.541-22.41-46.312 0-32.618 26.442-59.06 59.06-59.06 18.771 0 35.494 8.758 46.312 22.41-10.07-7.98-22.803-12.748-36.65-12.748-32.618 0-59.06 26.442-59.06 59.06 0 13.847 4.767 26.579 12.748 36.65z"/><path d="m380.429 383.199c0-4.268 3.461-7.729 7.729-7.729s7.729 3.461 7.729 7.729v3.493c1.337.371 2.627.879 3.853 1.508 2.838 1.458 5.286 3.568 7.136 6.127 2.484 3.452 1.701 8.264-1.751 10.748s-8.264 1.701-10.748-1.751c-.431-.597-.995-1.085-1.641-1.417-.588-.302-1.294-.473-2.08-.473h-3.871c-1.248 0-2.389.516-3.22 1.348-.832.832-1.348 1.973-1.348 3.221s.517 2.389 1.348 3.221c.832.832 1.972 1.348 3.221 1.348h2.749c5.515 0 10.524 2.251 14.15 5.877s5.876 8.635 5.876 14.15-2.251 10.524-5.876 14.15c-2.167 2.167-4.828 3.843-7.796 4.84v3.814c0 4.269-3.461 7.729-7.729 7.729s-7.729-3.46-7.729-7.729v-3.493c-1.337-.371-2.626-.879-3.852-1.509-2.861-1.469-5.308-3.57-7.136-6.097-2.501-3.452-1.73-8.277 1.721-10.778 3.452-2.501 8.278-1.731 10.779 1.721.454.628 1.018 1.127 1.641 1.447.588.302 1.294.473 2.08.473h3.872c1.248 0 2.389-.517 3.22-1.348.831-.832 1.348-1.972 1.348-3.221 0-1.248-.517-2.389-1.348-3.221-.832-.832-1.972-1.348-3.22-1.348h-2.749c-5.516 0-10.525-2.251-14.15-5.877-3.626-3.626-5.877-8.635-5.877-14.151 0-5.515 2.251-10.524 5.877-14.15 2.167-2.167 4.828-3.842 7.796-4.84v-3.812z"/></g></g></g><path d="m151.394 402.459h-38.552v-38.552h38.552zm3.848-54.55h-46.259c-6.702 0-12.14 5.447-12.14 12.15v46.259c0 6.693 5.438 12.14 12.14 12.14h46.259c6.702 0 12.149-5.448 12.149-12.14v-46.259c.001-6.703-5.447-12.15-12.149-12.15zm-39.009 40.491 7.367 7.188c1.561 1.509 3.57 2.273 5.594 2.273 2.061 0 4.118-.793 5.679-2.372l13.22-13.352c3.108-3.127 3.089-8.197-.052-11.31-3.137-3.108-8.197-3.08-11.32.052l-7.631 7.711-1.688-1.651c-3.17-3.08-8.23-3.023-11.31.151-3.09 3.16-3.02 8.22.141 11.31zm164.711-21.644c0 4.424-3.58 8.004-8.004 8.004h-77.75c-4.419 0-7.999-3.58-7.999-8.004 0-4.419 3.58-7.999 7.999-7.999h77.75c4.425 0 8.004 3.58 8.004 7.999zm7.5-78.085c-.401 1.208-1.24 2.174-2.391 2.769-26.37 13.38-63.068 14.829-77.618 14.829-14.56 0-51.253-1.448-77.632-14.829-.009-.009-.009-.009-.019-.009-2.339-1.179-3.283-4.042-2.099-6.381.566-1.132 1.547-1.976 2.75-2.372.491-.16 1-.236 1.5-.236.731 0 1.448.165 2.108.5 24.478 12.428 59.484 13.767 73.392 13.767 13.899 0 48.891-1.339 73.359-13.758 1.137-.571 2.42-.67 3.632-.273 1.198.396 2.179 1.24 2.745 2.372.57 1.13.673 2.418.273 3.621zm-123-29.742c2.151-6.712 4.018-13.89 5.589-21.408h9.089c-1.717 8.457-3.797 16.541-6.231 24.125-1.726 5.386-3.641 10.536-5.697 15.399-2.953-.585-5.9-1.255-8.81-2.038 2.216-5.042 4.249-10.418 6.06-16.078zm-21.342-42.184c0-2.632 2.151-4.778 4.782-4.778h99.036c2.641 0 4.782 2.146 4.782 4.778 0 2.637-2.141 4.778-4.782 4.778h-99.036c-2.631 0-4.782-2.141-4.782-4.778zm121.599-81.835c.382-1.122 1.17-2.033 2.231-2.561s2.259-.613 3.391-.236c2.32.774 3.58 3.297 2.811 5.594l-20.002 59.21c-1.957-.618-4.046-.948-6.211-.948h-2.839zm-11.32 140.885c-1.636-3.452-3.212-7.093-4.679-10.933-3.721-9.73-6.372-19.337-8.221-27.341h6.438c.901 0 1.783-.075 2.655-.189 1.726 7.15 4.146 15.659 7.475 24.375 1.594 4.146 3.273 8.032 5.032 11.635-2.837.93-5.747 1.741-8.7 2.453zm-57.969-38.274h28.681c1.99 9.221 5.07 21.017 9.669 33.053 1.08 2.825 2.221 5.551 3.391 8.207-12.22 1.641-23.37 1.934-29.718 1.934-5.344 0-14.05-.212-23.941-1.245 1.651-4.16 3.207-8.48 4.641-12.942 2.909-9.089 5.348-18.829 7.277-29.007zm81.542 29.822c-1.721-3.448-3.382-7.245-4.952-11.353-3.867-10.126-6.419-19.993-8.018-27.412 2.339-3.363 3.716-7.438 3.716-11.834 0-2.872-.59-5.613-1.646-8.098l22.238-65.841c3.58-10.688-2.207-22.29-12.89-25.865-5.179-1.736-10.721-1.349-15.612 1.09-4.877 2.433-8.527 6.626-10.249 11.782l-22.351 66.157h-79.307c-11.461 0-20.781 9.32-20.781 20.776s9.32 20.776 20.781 20.776h5.778c-1.297 5.782-2.787 11.315-4.457 16.527-1.773 5.537-3.773 10.749-5.943 15.583-.679-.312-1.339-.637-2-.967-10.22-5.155-22.71-1.033-27.86 9.178s-1.042 22.705 9.159 27.855c29.449 14.961 69.162 16.574 84.872 16.574 15.701 0 55.408-1.613 84.839-16.564 4.947-2.486 8.631-6.768 10.362-12.032 1.736-5.264 1.316-10.886-1.184-15.833-4.587-9.108-15.029-13.348-24.495-10.499zm101.696 195.968c-28.176 0-51.107-22.922-51.107-51.103s22.931-51.112 51.107-51.112 51.103 22.931 51.103 51.112c-.001 28.181-22.927 51.103-51.103 51.103zm0-118.213c-37.005 0-67.105 30.11-67.105 67.11s30.1 67.101 67.105 67.101c37 0 67.091-30.1 67.091-67.101 0-37-30.091-67.11-67.091-67.11zm21.681 79.42c0-11.201-9.107-20.309-20.309-20.309h-2.75c-2.339 0-4.311-1.971-4.311-4.311 0-2.33 1.971-4.311 4.311-4.311h3.872c1.368 0 2.679.679 3.495 1.811 2.594 3.589 7.594 4.391 11.173 1.802 3.58-2.594 4.382-7.593 1.788-11.173-2.707-3.749-6.598-6.428-10.956-7.669v-3.278c0-4.419-3.58-8.004-7.999-8.004-4.415 0-8.004 3.584-8.004 8.004v3.617c-7.947 2.759-13.678 10.32-13.678 19.201 0 11.202 9.108 20.309 20.309 20.309h2.75c2.33 0 4.311 1.971 4.311 4.311 0 2.33-1.981 4.301-4.311 4.301h-3.872c-1.368 0-2.679-.67-3.495-1.811-2.594-3.58-7.594-4.382-11.173-1.792-3.58 2.585-4.382 7.584-1.797 11.173 2.717 3.749 6.607 6.428 10.956 7.659v3.292c0 4.419 3.589 7.999 8.004 7.999 4.419 0 7.999-3.58 7.999-7.999v-3.631c7.961-2.749 13.687-10.32 13.687-19.191zm60.597 42.99c15.234-19.941 17.781-43.363 7.688-69.619-10.235-26.483-31.053-50.4-47.593-66.45h-84.75c-16.54 16.05-37.373 39.958-47.579 66.45-10.121 26.247-7.542 49.669 7.678 69.61 13.738 17.988 32.958 27.501 55.587 27.501h53.376c22.63 0 41.868-9.503 55.593-27.492zm-425.696-13.06c0 6.15 5.009 11.159 11.159 11.159h229.719c-2.688-4.938-4.815-10.018-6.376-15.229h-211.273c-4.419 0-7.999-3.579-7.999-7.999v-360.679c0-4.419 3.58-8.004 7.999-8.004h74.803l-3.292-15.229h-83.58c-6.15 0-11.159 5.009-11.159 11.169v384.812zm160.439-408.603-19.12-27.025c-.109-.16-.41-.585-.09-1.203.321-.617.84-.617 1.033-.617h59.856c.203 0 .722 0 1.042.618.321.618.019 1.042-.09 1.198l-19.12 27.03c-1.731 2.443-1.952 5.641-.58 8.296 1.382 2.66 4.122 4.325 7.112 4.325h42.797l-5.391 24.936c-.34 1.57-1.599 2.589-3.207 2.589h-104.973c-1.608 0-2.868-1.019-3.207-2.589l-5.391-24.936h42.802c2.99 0 5.726-1.665 7.108-4.325 1.372-2.656 1.15-5.853-.581-8.297zm183.95 23.79v173.38c-.321-.005-.641-.014-.972-.014-5.825 0-10.489 1.024-14.258 2.627v-163.928c0-4.419-3.58-8.004-7.999-8.004h-74.798l3.287-15.229h83.58c6.152 0 11.16 5.008 11.16 11.168zm35.383 208.08c7.796-2.887 12.829-4.273 16.017-4.933-.868 1.523-2.108 3.49-3.867 5.999-5.08 7.249-7.579 11.159-9.541 15.187h-77.93c-1.962-4.028-4.462-7.938-9.541-15.187-1.759-2.509-3-4.476-3.867-5.999 3.188.66 8.221 2.047 16.017 4.933 12.069 4.462 17.814-4.797 20.573-9.244 3.278-5.292 5.867-9.47 15.786-9.47 9.914 0 12.503 4.179 15.781 9.47 2.763 4.447 8.503 13.705 20.572 9.244zm-84.184 37.721c-1.476 0-2.726-1.259-2.726-2.74 0-1.476 1.25-2.731 2.726-2.731h95.654c1.476 0 2.726 1.255 2.726 2.731 0 1.481-1.25 2.74-2.726 2.74zm-56.847 76.171c9.909-25.36 28.209-48.16 44.429-64.917-3.858-3.443-6.311-8.433-6.311-13.993 0-7.32 4.23-13.649 10.362-16.739-1.302-2.052-3.009-4.561-5.419-7.999-6.721-9.593-12.154-19.498-6.433-26.917 6.023-7.806 18.621-5.198 36.991 1.575.25-.34.519-.759.802-1.193v-171.725h-70.511c-2.83 7.367-9.839 12.296-17.969 12.296h-104.974c-8.126 0-15.14-4.929-17.97-12.296h-70.506v344.681h200.307c-.67-8.612.071-17.54 2.203-26.771h-74.784c-4.419 0-7.999-3.58-7.999-7.999 0-4.424 3.58-8.004 7.999-8.004h79.783zm209.547.533c-9.858-25.582-28.299-48.579-44.627-65.45 3.858-3.443 6.329-8.433 6.329-13.993 0-7.32-4.249-13.649-10.381-16.739 1.302-2.052 3.009-4.561 5.419-7.999 6.707-9.593 12.131-19.498 6.424-26.917-6.013-7.806-18.611-5.198-36.982 1.575-.509-.708-1.16-1.75-1.67-2.58-2.419-3.891-5.829-9.381-12.409-13.07v-177.332c0-14.979-12.182-27.167-27.162-27.167h-127.291l10.192-14.413c3.717-5.259 4.197-12.079 1.24-17.795-2.962-5.712-8.801-9.259-15.253-9.259h-59.856c-6.443 0-12.282 3.547-15.244 9.259-2.957 5.716-2.476 12.536 1.24 17.795l10.192 14.413h-127.29c-14.979 0-27.157 12.187-27.157 27.167v384.813c0 14.979 12.178 27.162 27.157 27.162h240.849c16.441 18.998 39.213 29.388 64.719 29.388h53.376c27.407 0 51.678-11.989 68.28-33.779 18.866-24.662 22.167-53.281 9.905-85.079z"/></g></svg>