<svg id="Слой_1" enable-background="new 0 0 4000 4000" height="512" viewBox="0 0 4000 4000" width="512" xmlns="http://www.w3.org/2000/svg"><g><path d="m3238.056 2719.699.004.005v-344.267l-.004.006z" fill="#fff"/><path d="m3003.113 3207.988c14.012.349 25.289 11.759 25.289 25.867v112.054c0 21.698 7.914 41.382 20.588 57.078 6.107-11.362 9.8-23.719 9.8-36.828v-596.102c-6.119.828-12.315 1.407-18.655 1.407-76.602 0-138.905-62.303-138.905-138.918v-233.659c-184.639-58.956-318.741-232.102-318.741-436.033 0-252.358 205.286-457.641 457.647-457.641 6.255 0 12.458.224 18.655.474v-885.596c0-25.932 13.135-49.443 34.397-66.211.853-.684 1.896-1.182 2.769-1.841l-936.783.596c-50.207.034-91.036 40.885-91.036 91.083v143.793h55.643c44.409 0 80.556 36.145 80.556 80.574v211.861c0 .012.003.026.003.043 0 .012-.003.026-.003.043v872.568c0 44.426-36.148 80.574-80.556 80.574h-55.643v151.255c178.693 62.684 307.227 232.963 307.227 432.792 0 124.767-50.093 242.121-138.525 328.216 27.493 17.71 47.802 46.363 53.448 80.801 5.284 32.19-2.372 64.19-21.474 90.327-8.982 12.265-20.014 22.42-32.443 30.323 3.33 8.209 5.871 16.752 7.306 25.534 1.469 8.922 1.841 17.814 1.35 26.581h758.088zm-653.682-2412.582h582.371c14.312 0 25.93 11.62 25.93 25.931 0 14.329-11.62 25.932-25.93 25.932h-582.371c-14.35 0-25.929-11.602-25.929-25.932 0-14.312 11.581-25.931 25.929-25.931zm0 276.537h582.371c14.312 0 25.93 11.603 25.93 25.932 0 14.312-11.62 25.931-25.93 25.931h-582.371c-14.35 0-25.929-11.62-25.929-25.931 0-14.33 11.581-25.932 25.929-25.932zm0 138.23h582.371c14.312 0 25.93 11.602 25.93 25.93 0 14.312-11.62 25.932-25.93 25.932h-582.371c-14.35 0-25.929-11.62-25.929-25.932 0-14.329 11.581-25.93 25.929-25.93zm0 190.091c-14.35 0-25.929-11.597-25.929-25.932 0-14.312 11.581-25.932 25.929-25.932h582.371c14.312 0 25.93 11.62 25.93 25.932 0 14.333-11.62 25.932-25.93 25.932zm582.373 1667.311h-413.837c-14.35 0-25.932-11.603-25.932-25.93 0-14.312 11.581-25.931 25.932-25.931h413.837c14.312 0 25.929 11.62 25.929 25.931.001 14.327-11.619 25.93-25.929 25.93zm0-138.23h-413.837c-14.35 0-25.932-11.603-25.932-25.932 0-14.311 11.581-25.93 25.932-25.93h413.837c14.312 0 25.929 11.62 25.929 25.93.001 14.33-11.619 25.932-25.929 25.932z" fill="#fff"/><path d="m3058.79 620.091v885.592c53.702 2.164 105.018 13.645 152.445 32.836v-895.241c0-34.684 12.4-66.52 32.987-91.336l-148.267.096c-.873.658-1.916 1.157-2.769 1.841-21.262 16.769-34.396 40.28-34.396 66.212z" fill="#d5dfed"/><path d="m3048.99 3402.986c16.768 20.764 42.117 34.338 70.828 34.338 50.41 0 91.417-41.007 91.417-91.417v-600.367c0-14.329 11.597-25.932 25.929-25.932.303 0 .587.079.89.089v-344.259c-18.979 9.14-38.706 16.958-59.019 23.445v233.66c0 70.271-52.466 128.355-120.246 137.512v596.101c.001 13.111-3.692 25.469-9.799 36.83z" fill="#d5dfed"/><path d="m2251.433 3437.324h758.167c-20.626-24.829-33.059-56.689-33.059-91.417v-86.125h-638.672c-14.333 0-25.931-11.62-25.931-25.929h-74.234c-3.804 10.159-8.919 19.887-15.498 28.89-5.47 7.479-11.754 14.108-18.582 20.014 3.237 8.066 5.592 16.502 7.022 25.251 5.293 32.19-2.352 64.189-21.469 90.324-19.123 26.126-47.299 43.1-79.35 47.784l-85.124 12.446c5.685.755 11.492 1.236 17.453 1.236h183.693c1.703-12.665 12.435-22.474 25.584-22.474z" fill="#ffe76b"/><path d="m3354.542 551.87c-.012 0-.021 0-.029 0h-.102c-50.355.05-91.315 41.027-91.315 91.408v105.643h182.812v-105.643c-.001-50.393-40.982-91.382-91.366-91.408z" fill="#ffe76b"/><path d="m3040.134 1557.073c-223.751 0-405.785 182.035-405.785 405.78 0 82.999 25.095 160.227 68.026 224.582 50.236 20.46 105.146 31.89 162.616 31.89 83.026 0 160.548-23.5 226.372-64.127-10.69-16.156-16.958-35.481-16.958-56.259 0-56.389 45.859-102.255 102.238-102.255 20.744 0 40.035 6.246 56.171 16.903 40.462-65.726 63.844-143.087 63.844-225.928 0-57.421-11.413-112.295-31.835-162.498-64.376-42.972-141.645-68.088-224.689-68.088zm-238.761 269.698c0-56.389 45.86-102.255 102.238-102.255 56.392 0 102.255 45.865 102.255 102.255 0 56.374-45.863 102.234-102.255 102.234-56.378-.001-102.238-45.86-102.238-102.234zm432.276-57.436c10.134 10.129 10.134 26.551 0 36.663l-350.356 350.378c-5.065 5.065-11.708 7.589-18.343 7.589-6.639 0-13.277-2.524-18.342-7.589-10.113-10.134-10.113-26.555 0-36.685l350.378-350.356c10.129-10.133 26.534-10.133 36.663 0z" fill="#fff"/><path d="m2954.003 1826.771c0-27.784-22.613-50.392-50.393-50.392-27.762 0-50.375 22.609-50.375 50.392 0 27.779 22.614 50.372 50.375 50.372 27.78-.001 50.393-22.593 50.393-50.372z" fill="#fff"/><path d="m3202.881 2056.126c-7.668-4.719-16.599-7.58-26.239-7.58-27.762 0-50.375 22.614-50.375 50.393 0 9.66 2.87 18.607 7.605 26.284 25.525-20.358 48.68-43.54 69.009-69.097z" fill="#fff"/><path d="m3232.813 2013.588c27.73 18.304 46.084 49.705 46.084 85.351 0 56.377-45.864 102.254-102.254 102.254-35.596 0-66.967-18.317-85.279-45.994-65.824 40.626-143.345 64.127-226.372 64.127-57.47 0-112.38-11.429-162.616-31.89 72.803 109.138 197.005 181.203 337.758 181.203 223.745 0 405.78-182.035 405.78-405.785 0-140.703-72.015-264.871-181.094-337.692 20.423 50.204 31.835 105.078 31.835 162.497.001 82.841-23.379 160.202-63.842 225.929z" fill="#d5dfed"/><path d="m3176.643 2149.331c27.779 0 50.392-22.609 50.392-50.392 0-18.139-9.733-33.932-24.153-42.813-20.329 25.555-43.484 48.738-69.01 69.097 8.88 14.402 24.661 24.108 42.771 24.108z" fill="#d5dfed"/><path d="m3016.052 2715.787c1.295-1.195 2.777-2.173 4.009-3.43 20.576-20.402 33.194-48.752 33.194-79.87v-212.322c-4.373.125-8.724.333-13.121.333-29.767 0-58.843-2.954-87.044-8.407v220.454c.002 39.59 26.729 72.716 62.962 83.242z" fill="#ffe76b"/><path d="m3020.063 2712.356c-1.233 1.257-2.714 2.237-4.009 3.431 7.699 2.238 15.671 3.815 24.083 3.815 47.987 0 87.04-39.052 87.04-87.056v-220.454c-24.028 4.652-48.726 7.361-73.918 8.074v212.322c-.002 31.117-12.622 59.466-33.196 79.868z" fill="#ffcf57"/><g fill="#1c3359"><path d="m3237.166 2719.611c-14.333 0-25.93 11.603-25.93 25.931v600.367c0 50.41-41.007 91.417-91.417 91.417-28.712 0-54.06-13.574-70.828-34.338-12.675-15.697-20.588-35.381-20.588-57.078v-112.054c0-14.108-11.277-25.517-25.289-25.867-.219-.004-.422-.063-.642-.063h-664.602c-14.332 0-25.93 11.597-25.93 25.931 0 14.312 11.597 25.93 25.93 25.93h638.672v86.125c0 34.726 12.434 66.587 33.059 91.417h-758.167c-13.146 0-23.879 9.808-25.585 22.474-.151 1.14-.346 2.27-.346 3.457 0 14.329 11.597 25.929 25.93 25.929h868.386c78.982 0 143.278-64.275 143.278-143.278v-600.371c0-14.02-11.146-25.353-25.036-25.839 0 0 0-.004-.004-.004-.305-.006-.587-.086-.891-.086z"/><path d="m2349.431 847.267h582.371c14.312 0 25.93-11.602 25.93-25.931 0-14.312-11.62-25.932-25.93-25.932h-582.371c-14.35 0-25.929 11.62-25.929 25.932 0 14.33 11.581 25.931 25.929 25.931z"/><path d="m2349.431 1123.804h582.371c14.312 0 25.93-11.62 25.93-25.932 0-14.328-11.62-25.931-25.93-25.931h-582.371c-14.35 0-25.929 11.602-25.929 25.931 0 14.312 11.581 25.932 25.929 25.932z"/><path d="m2349.431 1262.034h582.371c14.312 0 25.93-11.62 25.93-25.932 0-14.328-11.62-25.93-25.93-25.93h-582.371c-14.35 0-25.929 11.602-25.929 25.93 0 14.313 11.581 25.932 25.929 25.932z"/><path d="m2957.734 1374.333c0-14.312-11.62-25.932-25.929-25.932h-582.371c-14.35 0-25.93 11.62-25.93 25.932 0 14.332 11.581 25.932 25.93 25.932h582.371c14.309-.001 25.929-11.6 25.929-25.932z"/><path d="m2931.804 2877.484h-413.837c-14.35 0-25.932 11.62-25.932 25.93 0 14.329 11.581 25.932 25.932 25.932h413.837c14.312 0 25.929-11.603 25.929-25.932.001-14.313-11.619-25.93-25.929-25.93z"/><path d="m2931.804 3015.714h-413.837c-14.35 0-25.932 11.62-25.932 25.931 0 14.329 11.581 25.93 25.932 25.93h413.837c14.312 0 25.929-11.603 25.929-25.93.001-14.313-11.619-25.931-25.929-25.931z"/><path d="m2846.607 2119.691c-10.113 10.129-10.113 26.551 0 36.685 5.065 5.065 11.703 7.589 18.342 7.589 6.635 0 13.277-2.524 18.343-7.589l350.357-350.379c10.134-10.113 10.134-26.534 0-36.663-10.13-10.134-26.534-10.134-36.663 0z"/><path d="m3005.864 1826.771c0-56.389-45.865-102.255-102.255-102.255-56.377 0-102.238 45.865-102.238 102.255 0 56.374 45.86 102.234 102.238 102.234 56.391-.001 102.255-45.86 102.255-102.234zm-152.63 0c0-27.784 22.614-50.392 50.375-50.392 27.779 0 50.393 22.609 50.393 50.392 0 27.779-22.613 50.372-50.393 50.372-27.761-.001-50.375-22.593-50.375-50.372z"/><path d="m3176.643 2201.193c56.389 0 102.254-45.878 102.254-102.254 0-35.646-18.355-67.047-46.084-85.351-16.135-10.658-35.427-16.903-56.171-16.903-56.377 0-102.238 45.865-102.238 102.255 0 20.777 6.267 40.103 16.958 56.259 18.314 27.678 49.686 45.994 85.281 45.994zm-50.376-102.254c0-27.779 22.613-50.393 50.375-50.393 9.64 0 18.57 2.862 26.239 7.58 14.42 8.88 24.153 24.673 24.153 42.813 0 27.784-22.614 50.393-50.392 50.393-18.11 0-33.89-9.707-42.771-24.107-4.733-7.679-7.604-16.626-7.604-26.286z"/></g><path d="m999.879 3219.04 156.45 66.557c74.508 31.81 154.719 47.713 235.623 46.675l123.842-1.393c3.115-10.661 12.789-18.553 24.466-18.692l140.374-1.625c74.56-.866 149.81-6.761 223.594-17.549l135.753-19.836c38.191-14.89 62.894-53.681 59.083-95.62l-140.729 20.567c-76.062 11.117-153.634 17.22-230.491 18.102l-174.029 2.022h-.313c-14.176 0-25.761-11.407-25.93-25.639-.156-14.312 11.302-26.049 25.635-26.222l174.029-2.004c74.56-.882 149.794-6.778 223.594-17.566l143.167-20.925c27.514-20.204 43.171-54.613 37.325-90.783v-.174c-2.591-15.56-8.812-29.561-17.785-41.314l2.921-.866c7.137-2.516 13.637-6.099 19.811-10.116l-279.76 40.888c-2.263.326-4.545.364-6.828.085l-427.63-51.22c-63.654-7.626-95.654-57.964-99.123-104.465-4.085-54.596 28.328-100.941 80.641-115.343l70.022-18.244c-10.015-37.824-15.405-77.117-15.405-117.119 0-11.104.54-22.082 1.317-32.987l-207.164 53.968c-98.401 25.618-184.677 80.573-249.504 158.903-18.831 22.736-36.119 49.634-51.398 79.936l-.11.224v324.135c16.422 5.16 32.678 10.842 48.552 17.64z" fill="#fff"/><path d="m1156.329 3285.599-156.45-66.557c-15.873-6.799-32.131-12.48-48.549-17.645v95.421c50.022 7.061 98.917 20.224 145.502 40.061l156.4 66.608c71.635 30.51 147.561 45.518 225.316 44.62l169.056-1.954c74.576-.866 149.79-6.778 223.59-17.566l231.145-33.777c18.173-2.664 34.127-12.273 44.965-27.092 10.839-14.813 15.177-32.962 12.205-51.064-.52-3.195-1.587-6.127-2.507-9.13-4.626 1.245-9.315 2.318-14.13 3.021l-231.145 33.777c-76.083 11.117-153.631 17.203-230.491 18.102l-140.37 1.625h-.312c-14.176 0-25.761-11.407-25.915-25.623-.034-2.638.448-5.141 1.152-7.546l-123.842 1.393c-80.9 1.037-161.112-14.865-235.62-46.674z" fill="#d5dfed"/><path d="m2039.98 3273.177 95.375-13.94c18.169-2.664 34.156-12.295 44.996-27.109 10.843-14.813 15.164-32.949 12.19-51.064-.954-5.816-2.629-11.282-4.888-16.452l-88.588 12.945c3.809 41.94-20.893 80.731-59.085 95.62z" fill="#d5dfed"/><path d="m2113.54 2993.619c8.973 11.753 15.194 25.753 17.785 41.314v.174c5.846 36.17-9.812 70.579-37.325 90.783l87.963-12.856c18.165-2.658 34.144-12.273 44.982-27.087 10.839-14.831 15.177-32.967 12.207-51.068-5.968-36.334-40.247-61.4-76.412-56.112l-26.467 3.87c-6.175 4.018-12.675 7.601-19.811 10.116z" fill="#d5dfed"/><path d="m1815.259 2967.258 90.016-3.267.025-.008-90.07 3.275z" fill="#ffe76b"/><path d="m2174.543 2617.281c0-186.403-117.968-345.018-283.272-405.899-36.79 2.288-72.246 9.513-105.765 20.98 11.151-.329 21.669 6.499 25.382 17.629 4.507 13.59-2.853 28.264-16.443 32.776-111.624 37.064-197.211 131.212-223.349 245.723-2.751 12.033-13.43 20.174-25.255 20.174-1.92 0-3.874-.224-5.807-.658-10.552-2.414-18.08-10.936-19.776-20.968-6.601 29.029-10.205 59.181-10.205 90.179 0 133.056 65.279 257.924 174.636 334.058.168.119.296.274.465.396l89.428 10.715 188.496-6.85 58.737-8.59c93.269-79.377 152.728-197.513 152.728-329.665zm-231.84 270.864c0 14.329-11.62 25.931-25.932 25.931-14.315 0-25.93-11.603-25.93-25.931v-65.211h-34.93c-52.018 0-94.337-42.315-94.337-94.316v-39.052c0-14.315 11.614-25.93 25.932-25.93 14.333 0 25.932 11.615 25.932 25.93v39.052c0 23.406 19.067 42.454 42.475 42.454h121.737c23.407 0 42.457-19.047 42.457-42.454v-56.218c0-23.428-19.052-42.458-42.457-42.458h-121.737c-52.018 0-94.337-42.318-94.337-94.337v-56.218c0-52 42.318-94.32 94.337-94.32h34.93v-65.194c0-14.329 11.614-25.929 25.93-25.929 14.312 0 25.932 11.603 25.932 25.929v65.194h34.946c51.997 0 94.32 42.318 94.32 94.32v37.841c0 14.312-11.62 25.93-25.931 25.93-14.332 0-25.932-11.62-25.932-25.93v-37.841c0-23.407-19.052-42.457-42.457-42.457h-121.737c-23.407 0-42.475 19.051-42.475 42.457v56.218c0 23.424 19.067 42.475 42.475 42.475h121.737c51.997 0 94.32 42.303 94.32 94.32v56.218c0 52-42.323 94.316-94.32 94.316h-34.946z" fill="#ffe76b"/><path d="m1815.23 2967.258 90.07-3.275 57.774-8.446-188.496 6.85z" fill="#ffcf57"/><path d="m1916.768 2210.5c-8.573 0-17.055.354-25.496.882 165.305 60.881 283.272 219.496 283.272 405.899 0 132.153-59.458 250.29-152.732 329.667l133.444-19.507c8.55-1.245 17.029-1.465 25.348-.879 90.868-77.526 142.898-189.585 142.898-309.346 0-224.25-182.47-406.716-406.734-406.716z" fill="#ffcf57"/><path d="m840.146 3235.813v-440.034h-23.162v492.934c14.181-13.24 23.162-32.006 23.162-52.9z" fill="#b4f779"/><path d="m899.469 3336.422v-494.192c0-25.601-20.849-46.451-46.451-46.451h-12.873v440.034c0 20.896-8.982 39.66-23.162 52.9v94.159h36.034c25.603 0 46.452-20.85 46.452-46.45z" fill="#95e058"/><path d="m579.099 2731.597c-9.437 2.672-16.7 10.466-18.468 20.242 3.979-8.488 10.441-15.493 18.468-20.242z" fill="#b4f779"/><path d="m684.815 3355.514c2.128-1.574 4.127-3.943 5.981-6.778 15.886-24.307 41.509-40.488 70.512-40.488h3.815v-551.801c0-14.295-11.614-25.929-25.932-25.929h-102.005c6.127 4.743 10.134 12.091 10.134 20.439 0 14.329-11.581 25.931-25.932 25.931h-13.362v132.798c0 14.329-11.62 25.929-25.932 25.929-9.268 0-17.346-4.905-21.93-12.219v442.245h93.787c11.568.003 22.237-3.766 30.864-10.127z" fill="#b4f779"/><path d="m586.097 3440.314h153.095c14.315 0 25.932-11.636 25.932-25.929v-106.135h-3.815c-29.004 0-54.627 16.182-70.512 40.487-1.852 2.836-3.853 5.204-5.981 6.778-8.627 6.36-19.296 10.13-30.86 10.13h-93.787v48.738c-.004 14.294 11.628 25.931 25.928 25.931z" fill="#95e058"/><path d="m1540.032 2548.005c1.933.434 3.887.659 5.807.659 11.826 0 22.504-8.142 25.255-20.174 26.138-114.511 111.725-208.658 223.349-245.723 13.589-4.512 20.951-19.186 16.443-32.776-3.714-11.129-14.231-17.958-25.382-17.629-132.208 45.223-233.879 156.704-265.25 294.676 1.698 10.033 9.227 18.553 19.778 20.967z" fill="#fff"/><path d="m2071.968 2728.617v-56.217c0-52.018-42.323-94.32-94.32-94.32h-121.737c-23.408 0-42.475-19.052-42.475-42.475v-56.218c0-23.407 19.067-42.457 42.475-42.457h121.737c23.408 0 42.458 19.051 42.458 42.457v37.841c0 14.312 11.597 25.93 25.932 25.93 14.312 0 25.932-11.62 25.932-25.93v-37.841c0-52-42.324-94.32-94.32-94.32h-34.946v-65.194c0-14.329-11.62-25.929-25.932-25.929-14.315 0-25.93 11.603-25.93 25.929v65.194h-34.93c-52.018 0-94.337 42.318-94.337 94.32v56.218c0 52.018 42.318 94.337 94.337 94.337h121.737c23.408 0 42.457 19.03 42.457 42.458v56.218c0 23.407-19.052 42.454-42.457 42.454h-121.737c-23.408 0-42.475-19.047-42.475-42.454v-39.052c0-14.315-11.597-25.93-25.932-25.93-14.315 0-25.932 11.615-25.932 25.93v39.052c0 52 42.318 94.316 94.337 94.316h34.93v65.211c0 14.329 11.614 25.931 25.93 25.931 14.312 0 25.932-11.603 25.932-25.931v-65.211h34.946c51.997-.001 94.32-42.316 94.32-94.317z" fill="#1c3359"/><path d="m582.095 2935.616c14.312 0 25.932-11.603 25.932-25.929v-132.798h13.362c14.35 0 25.932-11.603 25.932-25.931 0-8.348-4.005-15.696-10.134-20.439h-51.089c-2.44 0-4.757.448-6.997 1.081-8.028 4.749-14.489 11.754-18.468 20.241-.27 1.503-.465 3.03-.465 4.609v166.951c4.582 7.311 12.659 12.215 21.927 12.215z" fill="#fff"/><path d="m1482.937 1573.955h-259.308v232.963c0 5.998-2.119 11.45-5.537 15.844h270.39c-3.422-4.394-5.546-9.846-5.546-15.844v-232.963z" fill="#ffe76b"/><path d="m1405.145 1315.065h-103.723c-42.871 0-77.793 34.883-77.793 77.793v129.237h259.308v-129.237c0-42.911-34.903-77.793-77.792-77.793z" fill="#ffe76b"/><path d="m1642.608 1820.264c-.566.942-1.334 1.659-1.992 2.499h212.951c18.148 0 35.435-3.557 51.356-9.829l-128.954-214.574z" fill="#ffe76b"/><path d="m904.677 1806.918v-491.863h-129.654c-14.315 0-25.932-11.597-25.932-25.932 0-14.312 11.614-25.932 25.932-25.932h311.17c14.312 0 25.93 11.62 25.93 25.932 0 14.332-11.62 25.932-25.93 25.932h-129.654v491.863c0 5.998-2.122 11.45-5.546 15.844h226.321c-3.423-4.394-5.546-9.846-5.546-15.844v-414.061c0-71.487 58.171-129.654 129.654-129.654h103.723c71.499 0 129.654 58.167 129.654 129.654v414.061c0 5.998-2.119 11.45-5.537 15.844h70.664c-6.351-8.209-7.441-19.765-1.768-29.206l147.557-245.533-147.557-245.527c-7.382-12.289-3.402-28.214 8.871-35.596 12.289-7.382 28.193-3.406 35.575 8.867l133.363 221.919 133.36-221.919c7.369-12.273 23.288-16.249 35.58-8.867 12.273 7.381 16.249 23.306 8.871 35.596l-147.557 245.527 142.582 237.26c27.665-25.631 45.087-62.164 45.087-102.857v-576.509h-1397.427c1.219 3.01 1.924 6.284 1.924 9.733v199.908c0 14.312-11.62 25.932-25.932 25.932-7.183 0-13.679-2.92-18.372-7.634v488.907h356.14c-3.423-4.395-5.546-9.847-5.546-15.845z" fill="#ffe76b"/><path d="m1993.888 1105.917v576.509c0 40.695-17.421 77.226-45.087 102.857l4.972 8.272c7.381 12.289 3.406 28.21-8.867 35.592-4.187 2.507-8.784 3.702-13.328 3.702-8.817 0-17.393-4.478-22.25-12.585l-4.406-7.331c-15.92 6.272-33.207 9.829-51.356 9.829h-212.951c-5.018 6.411-12.48 10.088-20.258 10.088-4.55 0-9.146-1.195-13.329-3.702-2.845-1.71-5.191-3.912-7.104-6.386h-70.664c-4.743 6.094-12.065 10.088-20.394 10.088-8.314 0-15.642-3.992-20.385-10.088h-270.391c-4.743 6.094-12.065 10.088-20.394 10.088-8.314 0-15.642-3.992-20.385-10.088h-226.319c-4.743 6.094-12.071 10.088-20.385 10.088s-15.641-3.992-20.385-10.088h-356.138v129.836c0 15.83 12.876 28.712 28.712 28.712h1540.982c15.818 0 28.695-12.882 28.695-28.712v-846.68h-158.584z" fill="#ffcf57"/><path d="m1992.689 1054.056v-185.896c0-10.599-3.123-20.406-8.31-28.788h-59.496v69.399c0 58.032-47.211 105.242-105.226 105.242-58.053 0-105.246-47.211-105.246-105.242v-67.727l-129.295-.312c-1.224.177-2.44.375-3.714.375-1.33 0-2.609-.198-3.883-.392l-545.745-1.308v69.364c0 58.032-47.211 105.242-105.226 105.242-58.053 0-105.246-47.211-105.246-105.242v-68.605l-125.1-.418c-2.507.806-5.132 1.359-7.909 1.359-2.836 0-5.513-.57-8.07-1.413l-97.51-.32c-15.751 0-28.628 12.876-28.628 28.712v185.972z" fill="#fff"/><path d="m1992.689 1054.056h159.784v-185.972c0-15.836-12.878-28.712-28.695-28.712h-139.398c5.187 8.383 8.31 18.191 8.31 28.788z" fill="#d5dfed"/><path d="m821.301 788.303v-66.582c0-29.509-24.028-53.52-53.537-53.52s-53.541 24.011-53.541 53.52v66.228z" fill="#b4f779"/><path d="m1714.411 789.181v-67.46c0-29.509-24.028-53.52-53.537-53.52s-53.542 24.011-53.542 53.52v67.203z" fill="#b4f779"/><path d="m858.521 668.2c9.285 15.696 14.641 34.005 14.641 53.52v187.048c0 29.439 23.926 53.382 53.385 53.382 29.439 0 53.365-23.943 53.365-53.382v-187.187c0-29.439-23.926-53.382-53.365-53.382z" fill="#b4f779"/><path d="m1766.272 721.72v87.605c.451 1.861.738 3.778.738 5.765 0 2.097-.296 4.107-.738 6.057v87.622c0 29.439 23.926 53.382 53.385 53.382 29.438 0 53.365-23.943 53.365-53.382v-187.188c0-29.439-23.926-53.382-53.365-53.382h-68.026c9.285 15.697 14.641 34.006 14.641 53.521z" fill="#b4f779"/><path d="m572.456 1341.489c14.312 0 25.932-11.62 25.932-25.932v-199.908c0-3.448-.704-6.723-1.924-9.733h-42.378v227.937c4.691 4.716 11.186 7.636 18.37 7.636z" fill="#fff"/><path d="m582.796 2033.171h1433.478v136.471c-32.063-7.124-65.333-11.004-99.507-11.004-222.594 0-408.574 159.442-449.927 370.097l-227.569 59.26c-108.994 28.386-204.594 89.271-276.401 176.038-8.103 9.8-15.844 20.431-23.376 31.469-16.654-30.692-49.165-51.583-86.474-51.583h-37.302c-6.043-36.917-37.925-65.261-76.526-65.261h-153.095c-42.888 0-77.793 34.904-77.793 77.792v657.934c0 42.905 34.903 77.792 77.793 77.792h153.095c35.807 0 65.739-24.446 74.749-57.441h39.078c49.937 0 91.201-37.449 97.41-85.723 43.319 6.651 85.668 18.38 126.091 35.595l156.395 66.59c76.066 32.397 156.454 48.802 238.999 48.802 2.418 0 4.82-.017 7.226-.034l169.048-1.971c76.897-.882 154.445-6.968 230.507-18.08l146.009-21.352 85.124-12.446c32.051-4.684 60.227-21.66 79.35-47.785 19.118-26.133 26.761-58.134 21.469-90.323-1.43-8.749-3.785-17.186-7.022-25.251 6.829-5.904 13.113-12.534 18.583-20.014 6.58-9.002 11.695-18.731 15.498-28.89 4.182-11.163 6.652-22.871 7.322-34.854.49-8.765.118-17.659-1.35-26.581-1.436-8.784-3.975-17.325-7.306-25.534 12.43-7.904 23.461-18.06 32.443-30.323 19.101-26.139 26.758-58.137 21.474-90.327-5.647-34.44-25.956-63.092-53.448-80.801 88.433-86.094 138.526-203.449 138.526-328.216 0-199.828-128.536-370.109-307.227-432.792v-151.255h55.643c44.409 0 80.557-36.148 80.557-80.573v-872.568c0-.017.003-.029.003-.043 0-.017-.003-.029-.003-.043v-211.86c0-44.429-36.149-80.574-80.557-80.574h-55.643v-143.792c0-50.199 40.829-91.049 91.036-91.083l936.783-.596 148.267-.096c-20.588 24.816-32.987 56.652-32.987 91.336v895.241c-47.426-19.191-98.743-30.67-152.445-32.836-6.196-.25-12.399-.474-18.654-.474-252.361 0-457.647 205.286-457.647 457.641 0 203.93 134.102 377.076 318.741 436.033v233.66c0 76.616 62.303 138.918 138.906 138.918 6.34 0 12.533-.579 18.654-1.407 67.782-9.159 120.247-67.241 120.247-137.512v-233.658c20.312-6.488 40.039-14.304 59.019-23.445.004 0 .004 0 .004-.003 153.516-73.944 259.718-231.093 259.718-412.584 0-171.437-94.805-321.062-234.681-399.45v-762.618h208.743c14.329 0 25.93-11.602 25.93-25.932v-131.574c0-79-64.275-143.278-143.274-143.278-.059 0-.114.009-.169.009l-1195.192.764c-78.774.05-142.86 64.168-142.86 142.945v143.792h-91.391v-65.929c0-58.032-47.211-105.242-105.226-105.242h-157.07c-58.762-1.005-107.116 46.709-107.116 105.381v67.081l-523.698-1.258v-65.963c0-58.032-47.211-105.243-105.226-105.243h-157.073c-58.952-1.005-107.116 46.709-107.116 105.381v66.051l-79.565-.261c-44.426 0-80.574 36.145-80.574 80.574v1084.514c-.002 44.425 36.147 80.575 80.572 80.575zm-.084-1193.799 97.51.32c2.559.844 5.234 1.413 8.07 1.413 2.777 0 5.402-.553 7.909-1.359l125.1.418v68.605c0 58.032 47.194 105.243 105.246 105.243 58.015 0 105.226-47.211 105.226-105.243v-69.364l545.745 1.308c1.274.195 2.553.392 3.883.392 1.274 0 2.49-.198 3.714-.375l129.295.312v67.727c0 58.032 47.194 105.243 105.246 105.243 58.015 0 105.226-47.211 105.226-105.243v-69.399h198.895c15.818 0 28.695 12.876 28.695 28.712v185.972h-1598.388v-185.971c0-15.835 12.876-28.711 28.628-28.711zm397.2-117.791v187.188c0 29.439-23.926 53.382-53.365 53.382-29.459 0-53.385-23.943-53.385-53.382v-187.049c0-19.515-5.356-37.825-14.641-53.52h68.026c29.438 0 53.365 23.943 53.365 53.381zm-212.148-53.381c29.509 0 53.537 24.011 53.537 53.52v66.582l-107.079-.355v-66.228c0-29.508 24.032-53.519 53.542-53.519zm1105.258 53.381v187.188c0 29.439-23.926 53.382-53.365 53.382-29.459 0-53.385-23.943-53.385-53.382v-87.622c.443-1.95.738-3.958.738-6.057 0-1.989-.287-3.904-.738-5.765v-87.605c0-19.515-5.356-37.825-14.641-53.52h68.026c29.44 0 53.365 23.943 53.365 53.381zm-212.147-53.381c29.509 0 53.537 24.011 53.537 53.52v67.46l-107.079-.258v-67.203c-.001-29.508 24.03-53.519 53.542-53.519zm491.599 1284.398c0 15.83-12.878 28.712-28.695 28.712h-1540.983c-15.836 0-28.712-12.882-28.712-28.712v-846.68h1598.39zm-1592.309 803.85c0-1.578.194-3.106.465-4.609 1.768-9.776 9.032-17.569 18.468-20.242 2.241-.633 4.559-1.081 6.997-1.081h153.095c14.315 0 25.932 11.636 25.932 25.93v657.934c0 14.295-11.614 25.93-25.932 25.93h-153.093c-14.298 0-25.932-11.636-25.932-25.93zm391.275 120.588c15.279-30.303 32.565-57.2 51.397-79.935 64.827-78.329 151.101-133.283 249.504-158.903l207.164-53.968c-.777 10.905-1.317 21.884-1.317 32.987 0 40.002 5.39 79.294 15.405 117.119l-70.022 18.244c-52.312 14.4-84.726 60.746-80.641 115.343 3.469 46.502 35.47 96.84 99.123 104.465l427.63 51.219c2.283.279 4.567.241 6.828-.085l279.76-40.888 26.468-3.87c36.165-5.289 70.445 19.777 76.412 56.111 2.971 18.102-1.367 36.238-12.207 51.068-10.837 14.813-26.817 24.428-44.982 27.087l-87.963 12.856-143.167 20.925c-73.799 10.788-149.034 16.684-223.594 17.566l-174.029 2.004c-14.333.174-25.792 11.911-25.635 26.221.168 14.231 11.754 25.639 25.93 25.639h.313l174.029-2.022c76.854-.882 154.428-6.985 230.491-18.102l140.729-20.567 88.588-12.944c2.258 5.17 3.934 10.636 4.888 16.451 2.976 18.114-1.347 36.25-12.189 51.064-10.839 14.813-26.825 24.445-44.996 27.109l-95.375 13.94-135.753 19.836c-73.783 10.788-149.034 16.684-223.594 17.549l-140.374 1.625c-11.679.139-21.351 8.031-24.466 18.692-.705 2.406-1.186 4.908-1.152 7.546.151 14.216 11.736 25.623 25.915 25.623h.312l140.37-1.625c76.86-.899 154.407-6.985 230.491-18.102l231.145-33.777c4.815-.705 9.505-1.777 14.13-3.021.919 3.001 1.989 5.935 2.507 9.129 2.971 18.102-1.367 36.25-12.205 51.064-10.838 14.818-26.791 24.428-44.965 27.092l-231.145 33.777c-73.799 10.788-149.013 16.7-223.59 17.566l-169.056 1.954c-77.754.899-153.682-14.108-225.316-44.618l-156.4-66.608c-46.586-19.836-95.48-33.001-145.502-40.061v-419.556zm1229.164 49.527c-8.318-.587-16.798-.366-25.348.879l-133.444 19.508-58.737 8.59-57.775 8.445-.026.009-52.841 7.724-37.174-4.457h-.029l-40.652-4.871-89.428-10.715c-.168-.122-.296-.279-.465-.396-109.357-76.134-174.636-201.002-174.636-334.058 0-31 3.605-61.152 10.205-90.179 31.37-137.972 133.042-249.453 265.25-294.676 33.519-11.468 68.976-18.692 105.765-20.98 8.441-.527 16.924-.882 25.496-.882 224.265 0 406.734 182.465 406.734 406.719.003 119.755-52.028 231.815-142.895 309.34zm-589.073 13.891-163.291-19.563c-36.752-4.394-51.844-33.367-53.609-56.825-1.747-23.563 8.525-52.068 42.704-61.472l72.331-18.853c22.777 58.361 57.305 111.828 101.865 156.713zm-774.548-144.675h36.034c25.602 0 46.451 20.849 46.451 46.451v494.192c0 25.601-20.849 46.451-46.451 46.451h-36.034zm2628.924-2046.858h-182.812v-105.643c0-50.381 40.96-91.356 91.315-91.408h.102.029c50.384.026 91.365 41.015 91.365 91.408zm-181.086 876.241c109.079 72.821 181.094 196.987 181.094 337.692 0 223.75-182.034 405.785-405.78 405.785-140.755 0-264.955-72.065-337.758-181.203-42.931-64.354-68.026-141.581-68.026-224.582 0-223.745 182.035-405.78 405.785-405.78 83.042-.001 160.311 25.115 224.685 68.088zm-311.729 786.93c28.201 5.453 57.276 8.407 87.044 8.407 4.397 0 8.749-.207 13.122-.332 25.191-.713 49.89-3.423 73.918-8.074v220.454c0 48.003-39.052 87.056-87.04 87.056-8.412 0-16.383-1.578-24.083-3.815-36.232-10.526-62.961-43.652-62.961-83.24z" fill="#1c3359"/><path d="m1534.798 1392.857c0-71.487-58.154-129.654-129.654-129.654h-103.723c-71.484 0-129.654 58.167-129.654 129.654v414.061c0 5.998 2.123 11.45 5.546 15.844 4.743 6.094 12.071 10.088 20.385 10.088 8.327 0 15.649-3.992 20.394-10.088 3.419-4.394 5.537-9.846 5.537-15.844v-232.963h259.308v232.963c0 5.998 2.123 11.45 5.546 15.844 4.743 6.094 12.071 10.088 20.385 10.088 8.326 0 15.649-3.992 20.394-10.088 3.419-4.394 5.537-9.846 5.537-15.844v-414.061zm-311.169 129.236v-129.237c0-42.911 34.92-77.793 77.793-77.793h103.723c42.888 0 77.792 34.883 77.792 77.793v129.237z" fill="#1c3359"/><path d="m956.539 1315.056h129.654c14.312 0 25.93-11.597 25.93-25.932 0-14.312-11.62-25.932-25.93-25.932h-311.17c-14.315 0-25.932 11.62-25.932 25.932 0 14.332 11.614 25.932 25.932 25.932h129.654v491.863c0 5.998 2.123 11.45 5.546 15.844 4.743 6.094 12.071 10.088 20.385 10.088s15.642-3.992 20.385-10.088c3.423-4.394 5.546-9.846 5.546-15.844z" fill="#1c3359"/><path d="m1953.776 1302.496c7.378-12.289 3.402-28.214-8.871-35.596-12.29-7.382-28.21-3.406-35.58 8.867l-133.359 221.919-133.363-221.919c-7.381-12.273-23.284-16.249-35.575-8.867-12.273 7.381-16.252 23.306-8.871 35.596l147.557 245.528-147.559 245.533c-5.673 9.441-4.583 20.997 1.768 29.206 1.911 2.473 4.258 4.676 7.104 6.386 4.182 2.507 8.779 3.702 13.328 3.702 7.779 0 15.24-3.676 20.259-10.088.658-.84 1.427-1.557 1.992-2.499l133.36-221.907 128.954 214.574 4.406 7.331c4.858 8.108 13.434 12.585 22.25 12.585 4.545 0 9.141-1.195 13.328-3.702 12.273-7.382 16.249-23.301 8.867-35.592l-4.972-8.272-142.582-237.26z" fill="#1c3359"/></g></svg>