<svg id="Layer_1" height="512" viewBox="0 0 256 256" width="512" xmlns="http://www.w3.org/2000/svg"><g><g><g><g><path d="m155.542 58.104c-3.676 0-6.657-2.98-6.657-6.657v-34.024c0-.612-.497-1.109-1.109-1.109h-64.35c-.612 0-1.109.498-1.109 1.109v34.024c0 3.676-2.981 6.657-6.657 6.657s-6.657-2.98-6.657-6.657v-34.024c0-7.953 6.471-14.423 14.423-14.423h64.349c7.953 0 14.423 6.47 14.423 14.423v34.024c.001 3.676-2.98 6.657-6.656 6.657z" fill="#a4c9ff"/></g></g><g><g><path d="m155.542 60.104c-4.773 0-8.657-3.883-8.657-8.657v-33.134h-62.568v33.133c0 4.773-3.884 8.657-8.657 8.657s-8.657-3.883-8.657-8.657v-34.023c0-9.056 7.368-16.423 16.424-16.423h64.349c9.056 0 16.423 7.367 16.423 16.423v34.024c-.001 4.773-3.884 8.657-8.657 8.657zm-72.115-45.791h64.349c1.715 0 3.109 1.395 3.109 3.109v34.024c0 2.568 2.089 4.657 4.657 4.657 2.567 0 4.656-2.089 4.656-4.657v-34.023c0-6.85-5.573-12.423-12.423-12.423h-64.348c-6.851 0-12.424 5.573-12.424 12.423v34.024c0 2.568 2.089 4.657 4.657 4.657s4.657-2.089 4.657-4.657v-34.024c0-1.715 1.395-3.11 3.11-3.11z" fill="#3762cc"/></g></g><g><path d="m205.726 187.911h-180.25c-7.201 0-13.039-5.838-13.039-13.039v-118.713c0-7.201 5.838-13.039 13.039-13.039h180.251c7.201 0 13.039 5.838 13.039 13.039v118.713c0 7.201-5.838 13.039-13.04 13.039z" fill="#eaa97d"/></g><g><path d="m31.836 43.119h18.491v144.792h-18.491z" fill="#f9cfcf"/></g><g><path d="m180.875 43.119h18.491v144.792h-18.491z" fill="#f9cfcf"/></g><g><path d="m205.727 189.911h-180.251c-8.293 0-15.039-6.747-15.039-15.04v-118.712c0-8.293 6.746-15.04 15.039-15.04h180.251c8.293 0 15.039 6.747 15.039 15.04v118.713c0 8.293-6.746 15.039-15.039 15.039zm-180.251-144.792c-6.087 0-11.039 4.952-11.039 11.04v118.713c0 6.087 4.952 11.04 11.039 11.04h180.251c6.087 0 11.039-4.952 11.039-11.04v-118.713c0-6.087-4.952-11.04-11.039-11.04z" fill="#3762cc"/></g><g><path d="m50.327 189.911h-18.491c-1.104 0-2-.896-2-2v-144.792c0-1.104.896-2 2-2h18.491c1.104 0 2 .896 2 2v144.792c0 1.105-.895 2-2 2zm-16.491-4h14.491v-140.792h-14.491z" fill="#3762cc"/></g><g><path d="m199.366 189.911h-18.491c-1.104 0-2-.896-2-2v-144.792c0-1.104.896-2 2-2h18.491c1.104 0 2 .896 2 2v144.792c0 1.105-.895 2-2 2zm-16.491-4h14.491v-140.792h-14.491z" fill="#3762cc"/></g><g><path d="m49.95 126.055h-17.737c-2.761 0-5-2.239-5-5v-11.08c0-2.761 2.239-5 5-5h17.737c2.761 0 5 2.239 5 5v11.08c0 2.762-2.238 5-5 5z" fill="#a4c9ff"/></g><g><path d="m49.95 128.055h-17.736c-3.859 0-7-3.14-7-7v-11.08c0-3.86 3.141-7 7-7h17.736c3.859 0 7 3.14 7 7v11.08c0 3.86-3.14 7-7 7zm-17.736-21.079c-1.654 0-3 1.346-3 3v11.08c0 1.654 1.346 3 3 3h17.736c1.654 0 3-1.346 3-3v-11.08c0-1.654-1.346-3-3-3z" fill="#3762cc"/></g><g><path d="m35.082 117.005v-2.979c0-.834.676-1.511 1.511-1.511h8.979c.834 0 1.511.676 1.511 1.511v2.979c0 .834-.676 1.511-1.511 1.511h-8.979c-.835-.001-1.511-.677-1.511-1.511z" fill="#f9cfcf"/></g><g><g><path d="m217.372 92.11h-108.168l-6.567-13.136c-.508-1.016-1.547-1.659-2.683-1.659h-21.294c-1.657 0-3 1.343-3 3v11.795 14.794.649c0 14.463 11.724 26.187 26.187 26.187h126.269c8.328 0 15.279-6.602 15.439-14.929.282-14.698-11.549-26.701-26.183-26.701z" fill="#e0ebfc"/></g><g><path d="m217.372 92.109h-8.907v12.988c0 4.323 3.505 7.827 7.827 7.827h26.71c-2.477-11.884-13.009-20.815-25.63-20.815z" fill="#a4c9ff"/></g><g><path d="m228.115 135.74h-126.268c-15.542 0-28.187-12.645-28.187-28.187v-27.238c0-2.757 2.243-5 5-5h21.294c1.906 0 3.62 1.059 4.473 2.764l6.014 12.03h106.932c7.632 0 14.778 3 20.123 8.45 5.344 5.447 8.206 12.653 8.06 20.291-.181 9.313-8.004 16.89-17.441 16.89zm-149.455-56.425c-.552 0-1 .449-1 1v27.238c0 13.337 10.85 24.187 24.187 24.187h126.269c7.273 0 13.303-5.817 13.439-12.967.126-6.555-2.329-12.738-6.915-17.413s-10.719-7.25-17.268-7.25h-108.168c-.758 0-1.45-.428-1.789-1.106l-6.566-13.136c-.17-.341-.513-.552-.895-.552h-21.294z" fill="#3762cc"/></g><g><path d="m243.003 114.925h-26.71c-5.419 0-9.827-4.409-9.827-9.828v-12.988c0-1.104.896-2 2-2h8.906c13.278 0 24.881 9.424 27.589 22.408.123.589-.026 1.203-.406 1.67s-.95.738-1.552.738zm-32.537-20.816v10.988c0 3.213 2.614 5.828 5.827 5.828h24.117c-3.161-9.877-12.482-16.816-23.038-16.816z" fill="#3762cc"/></g><g><path d="m141.103 112.925h49.018l-70.04 40.589c-4.071 2.359-8.665 3.599-13.338 3.599h-11.498c-4.392 0-6.204-5.789-2.635-8.421z" fill="#e0ebfc"/></g><g><path d="m106.742 159.113h-11.497c-2.85 0-5.276-1.778-6.181-4.53-.927-2.816-.001-5.761 2.358-7.5l48.492-35.767c.344-.254.76-.391 1.188-.391h49.018c.904 0 1.696.607 1.932 1.481.234.874-.146 1.796-.929 2.25l-70.04 40.589c-4.367 2.531-9.325 3.868-14.341 3.868zm35.019-44.188-47.963 35.376c-1.146.845-1.233 2.12-.934 3.032.137.418.715 1.78 2.381 1.78h11.497c4.312 0 8.577-1.151 12.335-3.329l63.603-36.859z" fill="#3762cc"/></g></g><g><path d="m45.571 120.515h-8.979c-1.936 0-3.511-1.575-3.511-3.51v-2.979c0-1.936 1.575-3.511 3.511-3.511h8.979c1.936 0 3.511 1.575 3.511 3.511v2.979c0 1.935-1.575 3.51-3.511 3.51zm-8.489-4h8v-2h-8z" fill="#3762cc"/></g></g><g><g><path d="m239.164 162.357c-13.192-1.933-26-6.64-37.518-13.801-1.191-.741-2.686-.741-3.877 0-11.518 7.161-24.326 11.868-37.518 13.801-1.69.248-3.072 1.857-3.072 3.565-.004 29.096-.003 20.721-.003 40.876 0 19.115 16.241 36.757 42.532 46.202 20.802-7.603 42.532-23.335 42.532-46.202 0-19.359.001-10.373-.003-40.877-.001-1.708-1.383-3.317-3.073-3.564z" fill="#6bdddd"/></g><g><path d="m199.677 243.739c-20.965-8.328-33.848-22.298-33.848-36.942l.003-36.609c11.797-2.249 23.38-6.59 33.876-12.702 10.496 6.112 22.078 10.452 33.877 12.702l.002 36.609c-.001 17.148-17.006 30.078-33.91 36.942z" fill="#f9cfcf"/></g><g><path d="m199.707 255c-.229 0-.458-.039-.676-.118-27.052-9.719-43.856-28.144-43.856-48.084l.004-40.877c0-2.715 2.101-5.15 4.782-5.543 12.844-1.882 25.552-6.558 36.752-13.521 1.846-1.148 4.142-1.149 5.989 0 11.198 6.962 23.907 11.638 36.752 13.521 2.682.393 4.782 2.828 4.782 5.543l.003 40.877c0 29.745-33.56 44.321-43.846 48.081-.221.08-.454.121-.686.121zm-.001-105c-.305 0-.609.084-.882.253-11.662 7.251-24.9 12.121-38.283 14.082-.7.103-1.362.874-1.362 1.586l-.004 40.876c0 18.042 15.507 34.883 40.525 44.072 10.383-3.898 40.539-17.529 40.539-44.072l-.003-40.876c0-.713-.662-1.483-1.362-1.585-13.385-1.962-26.623-6.831-38.284-14.082-.273-.17-.578-.254-.884-.254z" fill="#3762cc"/></g><g><path d="m199.677 245.739c-.251 0-.501-.047-.738-.141-21.985-8.733-35.11-23.238-35.11-38.801l.003-36.608c0-.96.683-1.785 1.625-1.965 11.513-2.194 23.009-6.505 33.244-12.466.623-.362 1.391-.362 2.014 0 10.235 5.96 21.73 10.271 33.244 12.466.942.18 1.625 1.004 1.625 1.965l.003 36.608c0 22.752-26.909 35.446-35.157 38.795-.242.098-.497.147-.753.147zm-31.846-73.909-.003 34.967c0 13.485 12.178 26.764 31.84 34.782 8.411-3.523 31.918-15.144 31.918-34.782l-.003-34.967c-11.031-2.287-21.994-6.426-31.876-12.036-9.882 5.611-20.846 9.749-31.876 12.036z" fill="#3762cc"/></g><g><g><path d="m192.798 220.807c-1.915 0-3.761-.804-5.067-2.206l-12.133-13.035c-1.688-1.813-1.586-4.651.227-6.339s4.653-1.585 6.34.227l10.634 11.424 24.451-26.269c1.688-1.813 4.526-1.915 6.34-.227 1.813 1.688 1.915 4.526.227 6.339l-25.95 27.88c-1.307 1.402-3.154 2.206-5.069 2.206z" fill="#4671c6"/></g></g><g><g><path d="m192.798 222.808c-2.469 0-4.849-1.037-6.53-2.843l-12.134-13.035c-2.436-2.617-2.288-6.729.328-9.166 1.269-1.182 2.927-1.804 4.652-1.734 1.731.062 3.335.795 4.515 2.063l9.17 9.852 22.986-24.696c2.435-2.617 6.547-2.766 9.166-.329 2.617 2.438 2.765 6.549.329 9.166l-25.95 27.88c-1.684 1.805-4.064 2.842-6.532 2.842zm-13.919-22.783c-.63 0-1.228.235-1.691.666-1.002.934-1.059 2.51-.126 3.513l12.134 13.035c.928.997 2.241 1.569 3.603 1.569s2.676-.572 3.605-1.57l25.949-27.879c.933-1.003.876-2.579-.127-3.513-1.002-.932-2.578-.877-3.513.127l-24.45 26.269c-.756.813-2.172.813-2.928 0l-10.634-11.424c-.452-.486-1.067-.767-1.73-.791-.032-.002-.062-.002-.092-.002z" fill="#3762cc"/></g></g></g></g></svg>